STARTFONT 2.3
FONT -FontForge-Shadows Into Light-Book-R-Normal--36-360-72-72-P-149-ISO10646-1
SIZE 36 72 72  2
FONTBOUNDINGBOX 51 59 -6 -16
COMMENT "Generated by fontforge, http://fontforge.sourceforge.net"
COMMENT "Copyright (c) 2010, Kimberly Geswein (kimberlygeswein.com)"
STARTPROPERTIES 40
FOUNDRY "FontForge"
FAMILY_NAME "Shadows Into Light"
WEIGHT_NAME "Book"
SLANT "R"
SETWIDTH_NAME "Normal"
ADD_STYLE_NAME ""
PIXEL_SIZE 36
POINT_SIZE 360
RESOLUTION_X 72
RESOLUTION_Y 72
SPACING "P"
AVERAGE_WIDTH 149
CHARSET_REGISTRY "ISO10646"
CHARSET_ENCODING "1"
FONTNAME_REGISTRY ""
CHARSET_COLLECTIONS "ISO8859-2 ISO8859-9 ISO8859-4 ISO10646-1"
BITS_PER_PIXEL 2
FONT_NAME "ShadowsIntoLight"
FACE_NAME "Shadows Into Light"
COPYRIGHT "Copyright (c) 2010, Kimberly Geswein (kimberlygeswein.com)"
FONT_VERSION "001.000"
FONT_ASCENT 29
FONT_DESCENT 7
UNDERLINE_POSITION 0
UNDERLINE_THICKNESS 0
X_HEIGHT 21
CAP_HEIGHT 24
RAW_ASCENT 799
RAW_DESCENT 200
NORM_SPACE 16
RELATIVE_WEIGHT 40
RELATIVE_SETWIDTH 50
SUPERSCRIPT_X 0
SUPERSCRIPT_Y 17
SUPERSCRIPT_SIZE 23
SUBSCRIPT_X 0
SUBSCRIPT_Y 5
SUBSCRIPT_SIZE 23
AVG_LOWERCASE_WIDTH 136
AVG_UPPERCASE_WIDTH 173
ENDPROPERTIES
CHARS 352
STARTCHAR space
ENCODING 32
SWIDTH 450 0
DWIDTH 16 0
BBX 1 1 0 0
BITMAP
00
ENDCHAR
STARTCHAR exclam
ENCODING 33
SWIDTH 137 0
DWIDTH 5 0
BBX 5 31 0 0
BITMAP
1000
3400
3400
3400
3400
3400
7400
7400
7400
7400
7400
7400
7400
7400
7800
7800
7C00
7C00
2400
0000
0000
0000
0000
0000
0000
0000
0000
0000
0100
0340
0300
ENDCHAR
STARTCHAR quotedbl
ENCODING 34
SWIDTH 212 0
DWIDTH 8 0
BBX 6 11 1 18
BITMAP
5000
E0C0
E0D0
B0D0
B0D0
B0D0
B0D0
70D0
70D0
7490
3000
ENDCHAR
STARTCHAR numbersign
ENCODING 35
SWIDTH 450 0
DWIDTH 16 0
BBX 15 20 2 3
BITMAP
00034000
00038000
09038000
0F03C000
0B43C000
0B43FE00
0747E400
5BFFD000
BF81D000
2B41D064
0741D6E0
0741FE40
0782F400
079BF000
07F5E000
2FD0B000
FF80B000
56407000
01802000
00400000
ENDCHAR
STARTCHAR dollar
ENCODING 36
SWIDTH 445 0
DWIDTH 16 0
BBX 15 32 0 -4
BITMAP
00018000
00038000
00078000
00078000
00078000
0007EE00
000BF900
007F8000
01FB8000
0B878000
1E078000
7D078000
B8078000
B4078000
B907D400
2FFFFF90
0156C078
0002C01C
0001C028
0001D074
0001D2D0
0001FF40
0001FD00
001BF000
003EF000
0010F000
0000B000
00007400
00007800
00003800
00002C00
00001800
ENDCHAR
STARTCHAR percent
ENCODING 37
SWIDTH 450 0
DWIDTH 16 0
BBX 16 29 0 0
BITMAP
00000100
00000B40
00000F00
00001E00
0A802D00
2EB03C00
78247800
7824B400
7430B000
74A0F000
76D1E000
2F41D000
0502C000
00038000
00078000
000740B4
000B01FC
000A02ED
000E02CD
000D028D
001C02EC
001C02F8
002801F0
00240040
00340000
00300000
00700000
00600000
00500000
ENDCHAR
STARTCHAR ampersand
ENCODING 38
SWIDTH 356 0
DWIDTH 13 0
BBX 12 16 0 4
BITMAP
000600
000A00
000A00
000A00
000A00
000A0A
054A7D
1FFBF4
347FD0
701F40
607F40
70FB40
77CB40
2E0B40
000B40
000A00
ENDCHAR
STARTCHAR quotesingle
ENCODING 39
SWIDTH 155 0
DWIDTH 6 0
BBX 3 11 1 12
BITMAP
50
B4
B4
B8
B8
78
78
34
34
34
14
ENDCHAR
STARTCHAR parenleft
ENCODING 40
SWIDTH 291 0
DWIDTH 11 0
BBX 10 30 0 0
BITMAP
000050
0001E0
0003C0
000B40
002E00
003800
00B400
01E000
02C000
078000
0B4000
0E0000
1D0000
2D0000
3C0000
380000
780000
740000
740000
740000
740000
780000
380000
2C0000
1D0000
0F0000
078000
02D000
00B800
002F40
ENDCHAR
STARTCHAR parenright
ENCODING 41
SWIDTH 241 0
DWIDTH 9 0
BBX 7 27 1 0
BITMAP
D000
B400
2D00
0F00
0780
02D0
00E0
00B0
0074
0034
0038
0028
0028
0028
0028
0028
0028
0038
0074
00B4
00F0
01E0
02D0
0380
0B40
0A00
0400
ENDCHAR
STARTCHAR asterisk
ENCODING 42
SWIDTH 481 0
DWIDTH 17 0
BBX 17 18 0 2
BITMAP
0006000000
000B000000
000B02C000
000B0B8000
000B1E0000
390B780000
1FEFE1AF40
02FFFFF900
006FF94000
1ABFF80000
7FFFAF4000
103E87E000
00BAC0BC00
02F1C00400
0BD1C00000
0F41D00000
0500D00000
0000800000
ENDCHAR
STARTCHAR plus
ENCODING 43
SWIDTH 466 0
DWIDTH 17 0
BBX 17 16 0 4
BITMAP
0006000000
000A000000
000A000000
000A000000
000A000000
000A000000
000A016F40
000B6FF900
000FF94000
1ABF400000
7E9F400000
100B400000
000B400000
0007400000
0007400000
0003000000
ENDCHAR
STARTCHAR comma
ENCODING 44
SWIDTH 112 0
DWIDTH 4 0
BBX 3 9 1 -4
BITMAP
10
B4
F8
B8
B8
B4
B0
B0
90
ENDCHAR
STARTCHAR hyphen
ENCODING 45
SWIDTH 399 0
DWIDTH 14 0
BBX 14 6 0 6
BITMAP
00000690
0000BFE0
001BFE40
16FF9000
7FE40000
14000000
ENDCHAR
STARTCHAR period
ENCODING 46
SWIDTH 128 0
DWIDTH 5 0
BBX 3 3 1 0
BITMAP
10
F8
F4
ENDCHAR
STARTCHAR slash
ENCODING 47
SWIDTH 306 0
DWIDTH 11 0
BBX 10 28 0 -3
BITMAP
0000B0
0000E0
0001D0
0002C0
000380
000740
000B00
000E00
001D00
002C00
003800
007400
007400
00B000
00E000
01D000
02C000
038000
074000
0B0000
0E0000
1D0000
2C0000
380000
340000
700000
B00000
A00000
ENDCHAR
STARTCHAR zero
ENCODING 48
SWIDTH 308 0
DWIDTH 11 0
BBX 9 20 1 0
BITMAP
005000
02F800
0F5E00
2C0B00
340340
700280
A00280
A00180
A001C0
A001C0
A001C0
B001C0
B00280
700280
740340
340740
280B00
1C1E00
0BBC00
03E400
ENDCHAR
STARTCHAR one
ENCODING 49
SWIDTH 112 0
DWIDTH 4 0
BBX 2 23 1 0
BITMAP
40
A0
A0
A0
A0
A0
A0
A0
E0
E0
E0
E0
E0
E0
F0
F0
B0
B0
B0
B0
B0
70
70
ENDCHAR
STARTCHAR two
ENCODING 50
SWIDTH 512 0
DWIDTH 18 0
BBX 17 21 1 0
BITMAP
001A400000
00BFC00000
07E6E00000
1F80E00000
7D00B00000
F400B00000
9000B00000
0000E00000
0000E00000
0001D00000
0002C00000
0003800000
0007400000
000F000000
001E000000
002D000540
007801BF40
00F46FE400
01FFF90000
03F9000000
0240000000
ENDCHAR
STARTCHAR three
ENCODING 51
SWIDTH 461 0
DWIDTH 17 0
BBX 16 25 0 0
BITMAP
0001A400
006FFD00
07F96D00
2F801D00
7D002C00
20007400
0000E000
0003D000
000B4000
002E5500
00BFFFE0
01FF407C
07F4001E
0280000F
0000000F
0000000E
0000002D
00000078
000001F0
000007D0
00002F40
0000BD00
0007F400
000F8000
000A0000
ENDCHAR
STARTCHAR four
ENCODING 52
SWIDTH 503 0
DWIDTH 18 0
BBX 18 28 0 0
BITMAP
0000038000
00000B8000
00000F8000
00002F8000
00007F8000
0000BF8000
0001F78000
0002E38000
0007C38000
000F438000
002D038000
0078038000
00B4038000
01E0038150
07C007FFD0
0F85BFE540
6FBF978000
BE90038000
5000038000
0000038000
0000038000
0000038000
0000038000
0000038000
0000038000
0000038000
0000038000
0000034000
ENDCHAR
STARTCHAR five
ENCODING 53
SWIDTH 478 0
DWIDTH 17 0
BBX 17 25 0 0
BITMAP
0000001A40
1E001BFF40
3F5BF94000
7FFD400000
7FD0000000
2F00000000
1E00000000
1E00000000
1D00000000
2D00A90000
2D07FF4000
2D1F478000
2D7803C000
2ED003C000
1F40038000
1D00078000
04000B4000
00001F0000
00002D0000
0000B80000
0001F00000
0007D00000
000B800000
001E000000
0018000000
ENDCHAR
STARTCHAR six
ENCODING 54
SWIDTH 375 0
DWIDTH 14 0
BBX 12 29 1 0
BITMAP
038000
078000
078000
0B4000
0B0000
0F0000
0E0000
1D0000
1D0000
2C0000
280000
380000
340000
740000
700000
B001BD
E00BEE
E02F4A
E07C0D
E0B40C
E1E018
E2C034
E340B0
A700E0
BA02C0
7E0780
3F1E00
1FFC00
07E000
ENDCHAR
STARTCHAR seven
ENCODING 55
SWIDTH 458 0
DWIDTH 16 0
BBX 16 27 0 0
BITMAP
00000168
0016BFFD
1AFFFFFC
7FE940B8
000001F0
000002E0
000002D0
000003C0
00000780
00000740
00000B00
00000E00
00000E00
00001D00
00001C00
00002C00
00002C00
00002800
00003800
00003800
00003800
00003C00
00003C00
00003C00
00003D00
00002E00
00001E00
ENDCHAR
STARTCHAR eight
ENCODING 56
SWIDTH 333 0
DWIDTH 12 0
BBX 11 25 0 0
BITMAP
001BD0
00BFF0
02D7F4
0B0FF8
1D0558
2C0028
380034
780074
780070
3800E0
2C01C0
1E0380
078B40
01FF00
007E00
003E00
007B40
00A1C0
00C0A0
018034
028028
034028
038074
02EAE0
01BE40
ENDCHAR
STARTCHAR nine
ENCODING 57
SWIDTH 475 0
DWIDTH 17 0
BBX 16 25 0 0
BITMAP
00001500
0001FFD0
000FE6F0
007E02F4
00F403F8
02D00BB8
07802F38
0F007D28
2D01F828
3C07E02C
741F802C
747E002C
BAF8002C
7FE0001C
1500001D
0000001D
0000001D
0000001D
0000001E
0000000E
0000000E
0000000E
0000000E
0000000E
0000000D
ENDCHAR
STARTCHAR colon
ENCODING 58
SWIDTH 120 0
DWIDTH 4 0
BBX 2 12 1 4
BITMAP
40
E0
A0
00
00
00
00
00
00
10
B0
A0
ENDCHAR
STARTCHAR semicolon
ENCODING 59
SWIDTH 121 0
DWIDTH 4 0
BBX 3 15 1 -4
BITMAP
60
F4
10
00
00
00
10
B4
F8
B8
B8
B4
B0
B0
90
ENDCHAR
STARTCHAR less
ENCODING 60
SWIDTH 409 0
DWIDTH 15 0
BBX 14 19 1 4
BITMAP
00000090
000002D0
00001F80
00007E00
0002F800
000BE000
002F4000
01F80000
07D00000
2F400000
7D000000
3E400000
0BE00000
02FD0000
007F8000
0007F900
0000BF80
00001F40
00000100
ENDCHAR
STARTCHAR equal
ENCODING 61
SWIDTH 433 0
DWIDTH 16 0
BBX 14 10 1 3
BITMAP
00001540
16AFFE00
7FFF9000
2A500000
00000000
00001BF0
0016FF90
06FE9400
FF900000
A4000000
ENDCHAR
STARTCHAR greater
ENCODING 62
SWIDTH 450 0
DWIDTH 16 0
BBX 13 20 1 4
BITMAP
24000000
7E000000
2FE00000
06FD0000
006F9000
0007F800
00007F40
00000BC0
000003C0
00000780
00001F00
00007D00
0002F400
000BD000
007F4000
01FD0000
0BE00000
2F800000
7D000000
60000000
ENDCHAR
STARTCHAR question
ENCODING 63
SWIDTH 445 0
DWIDTH 16 0
BBX 16 33 0 0
BITMAP
0005AE90
01BFFFF8
1FF9007D
7F90002D
6900002C
0000002C
00000078
000000F0
000002D0
00000B80
00002E00
0000BC00
0003F000
000BD000
002F4000
003D0000
00780000
00BC0000
007E5900
001FFD00
00015000
00000000
00000000
00000000
00000000
00000000
00000000
00000000
00000000
00000000
00010000
000B4000
00074000
ENDCHAR
STARTCHAR at
ENCODING 64
SWIDTH 945 0
DWIDTH 34 0
BBX 33 33 1 0
BITMAP
000000001550000000
00000006FFFD000000
0000006FE96F800000
000002F90001F00000
00000F900000780000
00007D0000001D0000
0001F40000000B0000
0007C0000000074000
001F0001A400038000
003C001FFC0003C000
00B400BD1D0002C000
01E002E06D0002C000
03C00B80F40002C000
07401E02F40002C000
0F003807F40002C000
1D00B40E7400038000
2C01E02D2800074000
7803C0742C000B0000
780781E01E002D0000
B40B47C00FA6F40000
F40B1F0002BE900000
F00BF8000000000000
F00690000000000000
F40000000000000000
F40000000000001F40
B80000000000003F00
7C000000000001F800
3D00000000001BD000
1F4000000001BE0000
0BD00000001BE00000
02FD400016FE000000
006FFEABFF90000000
0001AFFE9400000000
ENDCHAR
STARTCHAR A
ENCODING 65
SWIDTH 390 0
DWIDTH 14 0
BBX 16 27 1 0
BITMAP
07400000
0BC00000
0BD00000
0BE00000
0FF40000
0F780000
0F2C0000
1E1D0000
1E0E0000
1E0B0000
2D074000
2D038000
2D02C000
3D02D015
3C01F6FF
3C00FF96
3C02F800
7C1FF400
7FF9B800
7F403C00
B8002D00
B4001D00
B0000E00
B0000B00
F0000740
E0000340
00000240
ENDCHAR
STARTCHAR B
ENCODING 66
SWIDTH 537 0
DWIDTH 19 0
BBX 18 26 1 0
BITMAP
0002FF4000
402FEBC000
E1F903C000
FB80038000
BE000B4000
7C001E0000
7800780000
3800F00000
3802C16900
380B6FEFD0
2C2FE402D0
2DBF4001D0
1FF8000280
1FE0000740
0F80000E00
0F40003C00
0F0000F400
0B0003D000
0B000F8000
07403E0000
0740B80000
0382F00000
0387800000
02C6000000
0280000000
0140000000
ENDCHAR
STARTCHAR C
ENCODING 67
SWIDTH 487 0
DWIDTH 18 0
BBX 16 27 1 0
BITMAP
00004000
000BF800
002FBD00
00780A00
00F00200
02D00000
03800000
07400000
0F000000
0E000000
1D000000
2C000000
3C000000
78000000
74000000
B4000000
B0000004
F000001E
E000003D
E00000B8
E00001F0
E00003D0
F0000B40
B4002D00
7C01F400
2FEF8000
07F90000
ENDCHAR
STARTCHAR D
ENCODING 68
SWIDTH 554 0
DWIDTH 20 0
BBX 18 27 1 0
BITMAP
0200000000
0300000000
0BEAA50000
1FFFFFE400
BF8005BF40
FB800007D0
47800001E0
07800000B0
07800000B0
07800000B0
07800000E0
03800001D0
03800002C0
0380000780
0380000F00
02C0002D00
02C0007800
02C001F000
02C003D000
02C00F8000
01C03E0000
01C0BC0000
01C2F00000
01CBD00000
005F400000
003D000000
0074000000
ENDCHAR
STARTCHAR E
ENCODING 69
SWIDTH 474 0
DWIDTH 17 0
BBX 16 26 1 0
BITMAP
20001BC0
B406FD00
B86FD000
7EFD0000
7FD00000
3D000000
3C000000
3C000000
2C000000
2C000740
2C002E00
2C02F800
2D1F8000
1EB90000
1FD00000
1F000000
1E000000
1E00002D
1E0001F8
1E000BD0
1E007E00
1E02F400
1E2F8000
1FFD0000
1FD00000
09000000
ENDCHAR
STARTCHAR F
ENCODING 70
SWIDTH 428 0
DWIDTH 15 0
BBX 14 25 1 0
BITMAP
000006F0
B0006F80
F007F800
F0BF8000
FFF80000
FF400000
F8000000
F4000000
F4000000
F4000000
F4000000
B40001D0
B8001F80
B801B900
B80BD000
B8BE0000
BFE40000
BF400000
7C000000
78000000
78000000
38000000
38000000
28000000
18000000
ENDCHAR
STARTCHAR G
ENCODING 71
SWIDTH 591 0
DWIDTH 21 0
BBX 21 28 0 -4
BITMAP
000000540000
00000BFC0000
00002F900000
0000F8000000
0003C0000000
000B40000000
001E00000000
003C00000000
00B400000000
01E000001540
02D0001BFF40
038001FFFD00
0B400155B800
0E000001F400
1D000002F400
2C000007F000
3C00000FF000
3800002FF000
780000BDE000
780007F0E000
3D002F80E000
2FEAFE01E000
0BFFE401F000
00690001F000
00000000F000
00000000F000
00000000B400
000000006000
ENDCHAR
STARTCHAR H
ENCODING 72
SWIDTH 424 0
DWIDTH 15 0
BBX 13 24 1 0
BITMAP
A0002800
F0003C00
F0002D00
F0001D00
B0001D00
B0000E00
B0000E00
B0000E00
B0001F00
B4001F00
B4003F00
B401FF00
B40BD740
B9BE0740
7FE40740
7F400780
7C000380
78000380
74000380
740003C0
740002C0
780002C0
780002C0
34000180
ENDCHAR
STARTCHAR I
ENCODING 73
SWIDTH 153 0
DWIDTH 6 0
BBX 3 27 2 0
BITMAP
90
E0
F0
B0
B0
B0
B4
B4
B4
B4
B4
B4
74
74
74
74
74
74
74
74
74
74
74
74
74
74
24
ENDCHAR
STARTCHAR J
ENCODING 74
SWIDTH 371 0
DWIDTH 13 0
BBX 13 29 0 -3
BITMAP
00006000
00007000
00007400
00007400
00007400
00007800
00007800
00003C00
00003C00
00002D00
00002D00
00002E00
00001E00
00001E00
00000E00
00000F00
00000F00
00000B00
00000B00
00000B00
00000B00
50000B40
60000B00
34000B00
2C000B00
0E000E00
03D06D00
00BFF400
00050000
ENDCHAR
STARTCHAR K
ENCODING 75
SWIDTH 524 0
DWIDTH 19 0
BBX 18 24 1 0
BITMAP
F000000000
B400018000
B400078000
74001F0000
78003D0000
3800B80000
3801F00000
3C03D00000
2C0B800000
2C1F000000
2D2D000000
2D78000000
1EF0000000
1FD0000000
1FC0000000
1F80000000
0F40000000
0FFAAAAA90
0FFFFFFFD0
0B00000000
0B40000000
0740000000
0740000000
0240000000
ENDCHAR
STARTCHAR L
ENCODING 76
SWIDTH 537 0
DWIDTH 19 0
BBX 18 23 1 0
BITMAP
6000000000
F400000000
F800000000
F800000000
B800000000
B800000000
B800000000
B800000000
B800000000
B800000000
B800000000
BC00000000
7C00000000
7C00000000
7C00000000
7C000002F0
7C00002FE0
7C0006F900
7C006F8000
7C07F90000
7DBF900000
7FF9000000
3E90000000
ENDCHAR
STARTCHAR M
ENCODING 77
SWIDTH 682 0
DWIDTH 25 0
BBX 23 28 1 0
BITMAP
500000000400
FD0000002D00
BF0000003D00
BF8000007E00
7AD00000BE00
75F00000EE00
34B40001DA00
343C0001CB00
382D00028B00
380F00034B00
380B40070700
2803C00A0740
2C02D00E0740
2C00F01D0740
2C00B42C0340
2D003C380380
2D002E700380
2D000FE00280
2D000BD002C0
2E00038002C0
2E00010002C0
2E00000001D0
2F00000001D0
2F00000001E0
2F00000001F0
1F00000000F0
1F00000000F4
1F0000000090
ENDCHAR
STARTCHAR N
ENCODING 78
SWIDTH 541 0
DWIDTH 19 0
BBX 17 28 1 0
BITMAP
0000001400
0000003C00
0000002D00
0000001E00
4000001E00
E000001E00
FC00000F00
BE00000F00
BF80000F00
BFD0000F00
7AF0000F00
78B8000B00
783E000B00
381F400B00
3C07C00B00
3C02E00B00
2C00B40B00
2D003D0B00
2D001F0B40
1D00078B40
1E0002DF40
1E0000BF40
0F00003F40
0F00001F80
0F00000BC0
0B00000BC0
0B00000100
0600000000
ENDCHAR
STARTCHAR O
ENCODING 79
SWIDTH 382 0
DWIDTH 14 0
BBX 14 25 0 0
BITMAP
00004000
000BF400
003FFD00
00BD1F40
01E00B80
03C007C0
078003C0
0B4002C0
0F0002D0
1E0002D0
2E0002D0
2D0002D0
3C0003C0
380003C0
780007C0
74000780
74000B40
74000F00
74001E00
78003D00
38007C00
2D01F400
1F9BD000
0BFF4000
02F80000
ENDCHAR
STARTCHAR P
ENCODING 80
SWIDTH 508 0
DWIDTH 18 0
BBX 17 29 1 0
BITMAP
0101AA9000
0F6FFFF800
2FF901BF00
3F90001F40
BF00000780
FE00000740
1E00000F00
1E00002E00
1D0000BC00
1D0002F400
1D001BD000
1E00BE0000
1E07F40000
1FBF800000
1FF8000000
1F80000000
1F00000000
1F00000000
1F00000000
0F00000000
0F00000000
0F00000000
0F00000000
0F00000000
0B00000000
0B00000000
0B00000000
0700000000
0700000000
ENDCHAR
STARTCHAR Q
ENCODING 81
SWIDTH 512 0
DWIDTH 18 0
BBX 17 27 1 0
BITMAP
00B9BE4000
02FFABD000
07F401F000
0BD0007400
0F40002800
1E00001C00
2D00001C00
3C00000D00
3800000D00
7800000D00
B400000D00
B000000E00
B000000E00
E000280D00
E0003C0D00
E0002D0D00
E0001E1D00
F0000B5C00
B00007B800
B40002F800
740001F400
380001F400
2D0002F800
1E0007BD00
0B802E1F00
02FAF80B40
006F900100
ENDCHAR
STARTCHAR R
ENCODING 82
SWIDTH 503 0
DWIDTH 18 0
BBX 17 29 1 0
BITMAP
5400000000
B800694000
B81BFFF800
B8BF95BF00
BFE0001F40
BE00001F00
B800003D00
B80001F400
B800078000
B4006E0000
B402E40000
B42F400000
B5F8000000
BFD0000000
BE00000000
BD00000000
BF80000000
BFF8000000
B1BF800000
B01BF80000
B001BF8000
B0001BF800
B00001BF80
B000000B80
B000000000
B000000000
B000000000
B000000000
6000000000
ENDCHAR
STARTCHAR S
ENCODING 83
SWIDTH 541 0
DWIDTH 19 0
BBX 19 26 0 0
BITMAP
00001BF800
0001FBF800
000B80A000
007D000000
01F4000000
03D0000000
0B40000000
1E00000000
3C00000000
7800000000
B400000000
B400000000
7800000000
2D00000000
0B94000000
01BFEA5400
0005AFFF90
00000016F4
00000000B8
00000001F4
0000001BD0
000001BE00
00006FE400
001BFD0000
00BE500000
0010000000
ENDCHAR
STARTCHAR T
ENCODING 84
SWIDTH 595 0
DWIDTH 21 0
BBX 25 26 0 0
BITMAP
00000140000540
000003D5ABFF80
0005AFFFFFA400
2AFFFFE5400000
BFE902D0000000
140002D0000000
000001D0000000
000001E0000000
000001E0000000
000000E0000000
000000F0000000
000000F0000000
000000B0000000
000000B4000000
000000B4000000
000000B4000000
00000078000000
00000078000000
0000007C000000
0000003C000000
0000003C000000
0000003D000000
0000002D000000
0000002D000000
0000001D000000
0000000D000000
ENDCHAR
STARTCHAR U
ENCODING 85
SWIDTH 450 0
DWIDTH 16 0
BBX 15 27 1 -4
BITMAP
00000040
500000E0
F40001F0
F40001F0
F40002F0
B40002F0
B40003F0
B40003F0
B40007E0
B40007E0
B4000BE0
B4000BE0
B4000FE0
B4000FE0
B4001EE0
B4002DE0
740038E0
740074B0
7800F0B0
3C02D0B0
2E5B80B0
0FFE0074
01900074
00000074
00000034
00000034
00000034
ENDCHAR
STARTCHAR V
ENCODING 86
SWIDTH 524 0
DWIDTH 19 0
BBX 18 26 0 0
BITMAP
00000000B0
00000000F0
00000001E0
00000002D0
00000002D0
B8000003C0
7C00000780
2E00000B80
1F00000B40
0B40000F00
07C0001F00
03D0001E00
01F0002D00
00F4003D00
0078007C00
003D007800
002E00B800
000F40F400
000B80F000
0007D1F000
0002E2E000
0001F3D000
0000BBD000
00007FC000
00002F8000
0000078000
ENDCHAR
STARTCHAR W
ENCODING 87
SWIDTH 878 0
DWIDTH 32 0
BBX 31 28 0 -1
BITMAP
0000000000000060
00000000000000B4
00000000000000F0
00000000000000E0
00000000800001E0
2C000002E00002D0
7D000003F40003C0
2E000003F8000380
1F000007BC000780
0B40000B7C000B40
0780000E3D000F00
03C0001D2E000E00
02D0002C1F001E00
02E000380F402D00
01F0007407802C00
00F400B003C03800
00B800E002D07800
00BC01D001E0B400
007D02D000B0B000
003D03C00078E000
002E0780002DE000
002F0B40001FD000
001F4F00000BD000
000F9E000007C000
000BEE0000024000
0003FD0000000000
0002F80000000000
0000500000000000
ENDCHAR
STARTCHAR X
ENCODING 88
SWIDTH 461 0
DWIDTH 17 0
BBX 15 25 1 0
BITMAP
00000038
140000B4
3C0000E0
2D0002C0
1E000780
0F400B00
07801D00
03D03C00
01E0B400
00F4F000
00BAD000
003F8000
002F4000
002F4000
003F8000
007FD000
00F1E000
02D0B400
07803800
0F002D00
2D000F00
7C000B40
F40007C0
100002D0
000001D0
ENDCHAR
STARTCHAR Y
ENCODING 89
SWIDTH 483 0
DWIDTH 17 0
BBX 17 28 0 0
BITMAP
0000000240
0000000380
0000000740
0000000B00
0000000E00
6000001D00
7800002D00
2D00003C00
1F40007800
0BC000B400
02E000F000
00F801E000
007D02D000
001F43C000
0007D78000
0002FF4000
0000BF0000
00003E0000
00003D0000
00007C0000
0000780000
0000B40000
0000F00000
0001E00000
0002D00000
0003C00000
0007800000
0003400000
ENDCHAR
STARTCHAR Z
ENCODING 90
SWIDTH 670 0
DWIDTH 24 0
BBX 23 25 1 0
BITMAP
6AAAAA555400
BFFFFFFFFC00
00000056F800
00000003F000
0000000BD000
0000002F4000
0000007E0000
000000F80000
000002F00000
00000BD00000
00001F400000
00007E000000
0000F8000000
0002F0000000
000BD0000000
001F40000000
003E00000000
00B800000000
02F000000000
07D000000000
1F4000000000
3E0000000000
BEAAAAAAABF4
FFFFFFFFFFF4
BFAAAAA95540
ENDCHAR
STARTCHAR bracketleft
ENCODING 91
SWIDTH 470 0
DWIDTH 17 0
BBX 15 44 1 -4
BITMAP
AAABFFD0
FEAAA500
F0000000
F0000000
F0000000
B0000000
B0000000
B0000000
B4000000
74000000
74000000
74000000
74000000
38000000
38000000
38000000
38000000
2C000000
2C000000
2C000000
2D000000
1D000000
1D000000
1E000000
0E000000
0E000000
0E000000
0E000000
0B000000
0B000000
0B000000
0B000000
07000000
07000000
07000000
07400000
07400000
07400000
07400000
07400068
07806BF8
07FFFE40
07FE4000
01500000
ENDCHAR
STARTCHAR backslash
ENCODING 92
SWIDTH 554 0
DWIDTH 20 0
BBX 20 37 0 0
BITMAP
1000000000
7800000000
7D00000000
2E00000000
0F00000000
0780000000
02C0000000
00E0000000
00B0000000
0078000000
002C000000
001E000000
000B000000
0007800000
0003C00000
0001E00000
0000F00000
0000B40000
00003C0000
00002D0000
00001F0000
00000B4000
000007C000
000002D000
000001F000
000000F400
0000007C00
0000003D00
0000002F00
0000000F40
0000000BC0
00000007D0
00000002E0
00000001F4
00000000B8
000000007D
000000003D
ENDCHAR
STARTCHAR bracketright
ENCODING 93
SWIDTH 512 0
DWIDTH 18 0
BBX 18 47 0 -4
BITMAP
0000015500
1AAFFFFF40
FFFFA9BF00
5550001F00
0000001F00
0000001E00
0000001E00
0000001E00
0000001E00
0000001E00
0000001E00
0000001E00
0000001E00
0000001E00
0000001E00
0000001E00
0000001E00
0000000E00
0000000F00
0000000F00
0000000F00
0000000F00
0000000F00
0000000F00
0000000B00
0000000B40
0000000B40
0000000B40
0000000B40
0000000740
0000000740
0000000780
0000000780
0000000780
0000000780
0000000780
00000003C0
00000003C0
00000003C0
00000003C0
00000003D0
00000003D0
00000003D0
0000001BD0
00001AFFD0
0001FFFA40
0000A50000
ENDCHAR
STARTCHAR asciicircum
ENCODING 94
SWIDTH 390 0
DWIDTH 14 0
BBX 13 10 1 24
BITMAP
00100000
00B80000
01FE0000
03CB4000
0742D000
0E00F400
1D007C00
38001F40
B0000B40
E0000100
ENDCHAR
STARTCHAR underscore
ENCODING 95
SWIDTH 612 0
DWIDTH 22 0
BBX 21 7 0 0
BITMAP
000000000140
00000001AFC0
000001BFFF80
0001BFFFE500
01BFFF940000
6FFE90000000
7E5000000000
ENDCHAR
STARTCHAR grave
ENCODING 96
SWIDTH 155 0
DWIDTH 6 0
BBX 5 6 0 21
BITMAP
1000
7400
3D00
2F00
0B40
0200
ENDCHAR
STARTCHAR a
ENCODING 97
SWIDTH 366 0
DWIDTH 13 0
BBX 13 20 0 0
BITMAP
00005000
0007FC00
001FFD00
007E3C00
00F83C00
01F03C00
03D07C00
07C0BD00
0F40FD00
1F02FD00
2D03DE00
3C0B8E00
781F0E00
B42E0B00
F07C0B00
E1F40B00
F7E00740
BFC00740
7F000740
14000100
ENDCHAR
STARTCHAR b
ENCODING 98
SWIDTH 442 0
DWIDTH 16 0
BBX 14 30 1 0
BITMAP
7C000000
7C000000
7C000000
7C000000
7C000000
7C000000
78000000
78000000
78000000
78000000
78000000
78005400
7807FF40
782FFFC0
74BD07D0
76E001E0
7BC000E0
7F4000E0
BD0001E0
B80002D0
B40003D0
B0000BC0
B0001F40
B0007E00
B002F800
B01FE000
B0BF4000
BBF80000
BFD00000
79000000
ENDCHAR
STARTCHAR c
ENCODING 99
SWIDTH 390 0
DWIDTH 14 0
BBX 12 22 1 0
BITMAP
001000
02FC00
0BEE00
1F5E00
2E0F00
3D0B00
7C0700
780000
B40000
B40000
B00000
F00000
E00000
E00006
E0000E
E0001E
A0002E
B0003D
7400B8
3D01F0
1FAF80
06F900
ENDCHAR
STARTCHAR d
ENCODING 100
SWIDTH 316 0
DWIDTH 11 0
BBX 10 35 0 -3
BITMAP
000050
0001F0
0000F0
0000E0
0000E0
0000E0
0000E0
0000A0
0000A0
0000A0
0000A0
0000B0
0000B0
0019B0
01FFF0
07F6F0
0F80F0
1F00F0
2E00F0
3C00F0
7800F0
7400F0
B401F0
B002F0
B003F0
B007F0
B00BB0
B00E70
B42C70
B8B470
7FD070
1A4070
000070
000070
000070
ENDCHAR
STARTCHAR e
ENCODING 101
SWIDTH 461 0
DWIDTH 17 0
BBX 17 19 -1 0
BITMAP
0002FE0000
000FFF8000
002F42E000
007D02F000
00B807D000
01F02F4000
02E6F80000
03FF900000
0BFD000000
1FD0000140
7FC0000780
1B80001F40
0380002E00
038000BC00
038001F400
038007D000
02D02E0000
00FBF80000
006F900000
ENDCHAR
STARTCHAR f
ENCODING 102
SWIDTH 345 0
DWIDTH 12 0
BBX 11 32 1 0
BITMAP
00BD00
01FF40
02FB80
03E2C0
03D0D0
07C040
07C000
07C000
078000
0B8000
0B8000
0B8000
0B4000
0B4018
0B41FC
0B6FF4
0BFF90
2F9400
BF4000
A74000
074000
078000
078000
078000
03C000
03C000
03C000
03D000
03D000
02D000
02D000
02C000
ENDCHAR
STARTCHAR g
ENCODING 103
SWIDTH 437 0
DWIDTH 16 0
BBX 15 36 0 -16
BITMAP
00006A00
0002FFC0
000F9BD0
003D0BD0
00B40FD0
01E02EE0
03C03AE0
074076E0
0F00F2E0
1E01E2F0
2D03D1F0
3C0781F0
380F41F0
742E01F4
747D01F4
7EF800F4
3FE000F4
1F8000F4
000000F8
000000F8
000000F8
000000F4
000000F4
000000F0
000001F0
000001E0
000002D0
000003C0
00000780
00000B40
00001F00
00007D00
0001F800
016FE000
02FF8000
00140000
ENDCHAR
STARTCHAR h
ENCODING 104
SWIDTH 466 0
DWIDTH 17 0
BBX 15 28 1 -1
BITMAP
50000000
B0000000
B0000000
B0000000
B0000000
B0000000
B0000000
B0000000
B0000000
B4001A40
B401FFF0
B407F9B4
B41FE078
B42F8078
B47E0078
B4BC0078
B4F80078
B5F00078
B6E00078
B7C00078
BF800078
BF00007C
BE00007C
BC00003C
B800003C
B000003C
5000003C
00000010
ENDCHAR
STARTCHAR i
ENCODING 105
SWIDTH 132 0
DWIDTH 5 0
BBX 4 28 0 -1
BITMAP
24
78
14
00
00
00
14
2D
2D
2D
2D
3D
3D
2D
2D
2D
2D
2D
2D
2D
2D
2D
2D
2D
2D
2D
1D
04
ENDCHAR
STARTCHAR j
ENCODING 106
SWIDTH 112 0
DWIDTH 4 0
BBX 10 41 -6 -12
BITMAP
000180
000280
000000
000000
000000
000000
000000
000000
000000
000000
000140
000380
000380
000380
000380
000380
0003C0
0003C0
0003C0
0003C0
0002C0
0002C0
0002D0
0002D0
0002D0
0001D0
0001E0
0001E0
0001E0
0001E0
0000E0
0000E0
0000E0
0000E0
0001E0
0001D0
D002D0
B403C0
3D0B80
0BAF00
01BD00
ENDCHAR
STARTCHAR k
ENCODING 107
SWIDTH 428 0
DWIDTH 15 0
BBX 14 30 1 -2
BITMAP
14000000
38000000
3C000000
3C000000
7C000000
7C000000
7C000000
7C0001E0
7C0007D0
78000FC0
78002F40
78007E00
7800FD00
B802F800
B807F000
B40FD000
B42F4000
B47E0000
B5F80000
BBE00000
BF800000
BE000000
FF800000
FBF90000
F07FE400
F006FFD0
F0001FD0
E0000140
D0000000
40000000
ENDCHAR
STARTCHAR l
ENCODING 108
SWIDTH 137 0
DWIDTH 5 0
BBX 3 31 1 0
BITMAP
90
E0
E0
A0
B0
B0
B0
70
74
74
74
74
34
34
38
38
38
38
38
38
38
38
38
38
38
3C
3C
3C
7C
7C
04
ENDCHAR
STARTCHAR m
ENCODING 109
SWIDTH 579 0
DWIDTH 21 0
BBX 19 22 1 0
BITMAP
6000000000
F000000000
B400000000
B400000400
B404002F40
743F407F80
74BF80BFC0
74FFC1FBC0
74FBC2D3D0
75E2D3C2D0
76D1D782D0
3AD1EB42D0
3BC0FF01D0
3B80BE01D0
3F40BD01D0
3F407C01E0
3F007C01E0
3F002401F0
3E000000F4
3D000000B8
2D00000024
2800000000
ENDCHAR
STARTCHAR n
ENCODING 110
SWIDTH 483 0
DWIDTH 17 0
BBX 15 21 1 0
BITMAP
50001E00
E000FFC0
F003FBD0
B00BD0E0
B40F40B0
B42F00B4
B43D0074
B83C0078
78780078
78B40078
7CB0007C
7CE0003C
7DD0003C
3ED0003C
3FC0003C
3F80003C
3F40003C
3F40002C
2F00002C
2F00002C
2D000000
ENDCHAR
STARTCHAR o
ENCODING 111
SWIDTH 266 0
DWIDTH 10 0
BBX 9 20 0 0
BITMAP
02A000
0BF800
0FFD00
0E0700
1D0340
2C0380
2C02C0
3802C0
3802C0
7803C0
7803C0
7803C0
780780
780780
780B40
380F00
382D00
3DBC00
2FF000
1F8000
ENDCHAR
STARTCHAR p
ENCODING 112
SWIDTH 482 0
DWIDTH 17 0
BBX 16 29 1 -10
BITMAP
90000000
F0006FA0
F00BFABD
F07E401E
E2E0002E
FF40003D
FD000078
F80001F4
B40007D0
B0001F40
B000BD00
B007F400
B42FD000
B5FE0000
BBF80000
BFD00000
BE000000
B4000000
B4000000
B0000000
B0000000
B0000000
B0000000
B0000000
B0000000
B0000000
F0000000
E0000000
A0000000
ENDCHAR
STARTCHAR q
ENCODING 113
SWIDTH 408 0
DWIDTH 15 0
BBX 16 27 0 -10
BITMAP
0001A400
000BFE00
002F4B00
00B80F00
01E00F40
03C00F40
0B401F40
0E002F80
1D003B80
2C0077C0
3800B6C0
7801F2C0
7802D2D0
380B81D0
2FFE01E0
069000E0
000000F0
000000F0
000000B0
000000B4
000000B4
00000078
00000078
00000038
0000003C
0000003C
0000002D
ENDCHAR
STARTCHAR r
ENCODING 114
SWIDTH 396 0
DWIDTH 14 0
BBX 13 19 1 0
BITMAP
00001400
A007FF40
F01FFA00
F07E0000
B0B80000
B4F40000
74F00000
75E00000
39E00000
39D00000
2ED00000
2ED00000
1ED00000
1FD00000
0FC00000
0FC00000
0FC00000
0B800000
06800000
ENDCHAR
STARTCHAR s
ENCODING 115
SWIDTH 366 0
DWIDTH 13 0
BBX 12 19 1 -1
BITMAP
002FE0
02FAE0
0B8000
2E0000
7C0000
B40000
F00000
E00000
E006F4
FABFFD
BFE56E
19001E
00002D
0000B8
0007E0
001F80
00BE00
07F800
029000
ENDCHAR
STARTCHAR t
ENCODING 116
SWIDTH 268 0
DWIDTH 10 0
BBX 12 29 -2 -1
BITMAP
005000
00B400
00B400
00B400
00B000
00B000
00B000
00B000
00B06E
00FFFE
02FFE0
2FF900
7FF000
39F000
00F000
00F000
00F000
00F000
00B400
00B400
00B400
00B400
00B400
00B400
007400
007400
007800
007800
002400
ENDCHAR
STARTCHAR u
ENCODING 117
SWIDTH 387 0
DWIDTH 14 0
BBX 12 19 1 -1
BITMAP
500010
B00078
B00078
B00078
B00078
B00078
B40078
B400B8
B400B8
B400B8
B400F8
7402F8
7803F8
780BF8
3C1FBC
2C7E2C
1FF82D
0BE01E
014009
ENDCHAR
STARTCHAR v
ENCODING 118
SWIDTH 354 0
DWIDTH 13 0
BBX 12 20 0 0
BITMAP
000004
00002E
00001E
00001E
10001E
B8002E
3D002E
2E002E
0F402E
0BC02E
03D02E
01F02D
00F82D
007D3D
002F3D
000FFD
0007FD
0002FD
0000FD
000078
ENDCHAR
STARTCHAR w
ENCODING 119
SWIDTH 566 0
DWIDTH 20 0
BBX 18 19 1 0
BITMAP
0001400040
A003D001D0
F003F001E0
B407F801E0
7C07BC01E0
2D079E01E0
1E0B8B41E0
0F0B43C1E0
0B4B42D1E0
078F40F1E0
03DF4079F0
02EF402DF0
01FF001FF0
00BF000BF0
007F0003F0
003F0001F0
002F0000B0
001E000000
000A000000
ENDCHAR
STARTCHAR x
ENCODING 120
SWIDTH 454 0
DWIDTH 16 0
BBX 16 25 0 -3
BITMAP
00006400
0000B800
0000B800
0000B800
0000F400
2800F400
7D00F000
2F00E000
0F81E000
03E1D000
00FAD000
002FD000
000BD000
000BF400
000FFD00
000F6F40
001E07D0
002E01F4
002D007D
003C001E
007C0005
00B80000
00B40000
00F40000
00600000
ENDCHAR
STARTCHAR y
ENCODING 121
SWIDTH 363 0
DWIDTH 13 0
BBX 12 33 1 -14
BITMAP
000008
00001D
40001D
F0001D
F8001D
7C002D
2E002D
1F402D
0B802D
03D02D
01F02D
00B83C
003D3C
001F7C
000BFC
0007FC
0002FC
0000FC
000078
000038
000078
000078
000078
000074
000074
0000B4
0000B4
0000B0
0000B0
0000F0
0000F0
0000E0
000050
ENDCHAR
STARTCHAR z
ENCODING 122
SWIDTH 618 0
DWIDTH 22 0
BBX 22 19 1 -1
BITMAP
00001BC00000
0001FFD00000
006FEBC00000
6BF90B800000
BF901F400000
10002F000000
00003D000000
0000B8000000
0000F4000000
0002E0000000
0003C0000000
000740000000
000F00000000
001E00001AD0
002D006BFFF0
003E6FFFFA50
007FFFE94000
007F94000000
001000000000
ENDCHAR
STARTCHAR braceleft
ENCODING 123
SWIDTH 348 0
DWIDTH 13 0
BBX 13 34 0 -3
BITMAP
00059000
007FFE00
01F90740
02E00100
03C00000
07800000
07800000
03800000
02C00000
01E00000
00B40000
003C0000
007C0000
2FF40000
3F400000
1B000000
03800000
01E00000
00F40000
2FF40000
7F900000
7D000000
B4000000
B0000000
B0000000
B0000000
74000000
78000000
3C000000
2E000000
0FD00000
07F90000
01FFD000
001BD000
ENDCHAR
STARTCHAR bar
ENCODING 124
SWIDTH 137 0
DWIDTH 5 0
BBX 3 31 1 0
BITMAP
90
E0
E0
A0
B0
B0
B0
70
74
74
74
74
34
34
38
38
38
38
38
38
38
38
38
38
38
3C
3C
3C
7C
7C
04
ENDCHAR
STARTCHAR braceright
ENCODING 125
SWIDTH 348 0
DWIDTH 13 0
BBX 11 34 0 -4
BITMAP
1AA000
BAFD00
D02F00
000B80
0003C0
0003C0
0002C0
000380
000740
000E00
002D00
003C00
007D00
001BF8
0001F4
0001D0
000740
000F00
002E00
001FF4
0002FC
0000BC
00002C
00001C
00001C
00002C
00002C
000038
000078
0001F0
000BE0
007FC0
07FE00
07A400
ENDCHAR
STARTCHAR asciitilde
ENCODING 126
SWIDTH 458 0
DWIDTH 17 0
BBX 14 6 1 20
BITMAP
06A40000
2FFD01E0
7D2E03E0
B80F4BC0
7007FF40
0001F800
ENDCHAR
STARTCHAR nonbreakingspace
ENCODING 160
SWIDTH 450 0
DWIDTH 16 0
BBX 1 1 0 0
BITMAP
00
ENDCHAR
STARTCHAR exclamdown
ENCODING 161
SWIDTH 137 0
DWIDTH 5 0
BBX 3 24 1 -6
BITMAP
0C
08
00
00
00
00
00
00
00
50
F0
F0
E0
E0
E0
E0
E0
E0
E0
E0
A0
A0
A0
40
ENDCHAR
STARTCHAR cent
ENCODING 162
SWIDTH 394 0
DWIDTH 14 0
BBX 12 28 1 -3
BITMAP
00B000
007400
007400
007400
02FD00
0BFF80
1F7BE0
2E29F0
3D2870
7C2800
782800
B42800
B41800
B01800
F01800
E01C00
E01C06
E01C0E
E01C1E
A01C2E
B01C3D
741CB8
3D1DF0
1FAF80
06FD00
001D00
002D00
001400
ENDCHAR
STARTCHAR sterling
ENCODING 163
SWIDTH 539 0
DWIDTH 19 0
BBX 19 25 0 -1
BITMAP
000001BE00
00001BFF80
00007E42D0
0001F40090
0003D00000
000B400000
000F000000
001D000000
002C554000
16BFFE0000
BFFE900000
29B4000000
00B4000000
00F0000000
00F0000000
00E0000000
00E0000000
01E0000000
01E0000000
01E0015000
01E02FFE40
01E1FFAFF4
00FF9002E0
00F9000000
0050000000
ENDCHAR
STARTCHAR currency
ENCODING 164
SWIDTH 500 0
DWIDTH 18 0
BBX 15 21 1 3
BITMAP
00000090
000001F4
014002F0
03D143E0
02EBFBC0
01FFFF40
00F82E00
00F00E00
01E00B00
01D00B00
01D00B00
01D00B00
01D00B00
00E01F00
01F02F00
03F4BE00
0BBFFD00
1F1FEF00
3D050B40
B8000740
74000100
ENDCHAR
STARTCHAR yen
ENCODING 165
SWIDTH 478 0
DWIDTH 17 0
BBX 14 29 2 0
BITMAP
00000780
2D000FD0
1F001F80
0F402F40
0BC07E00
07D0BC00
03F0F400
02F6E000
00FFD000
00BF8000
007F4000
002F0000
001F0000
000E0000
000E0000
001FAFC0
6FFFFF80
7FFFE500
055E0000
000E1000
56BFFF40
FFFF5500
141E0000
001E0000
001E0000
001E0000
001E0000
001E0000
00150000
ENDCHAR
STARTCHAR brokenbar
ENCODING 166
SWIDTH 137 0
DWIDTH 5 0
BBX 3 31 1 0
BITMAP
90
E0
E0
E0
B0
B0
B0
70
74
74
74
74
10
00
24
38
38
38
38
38
28
28
3C
3C
3C
3C
3C
3C
7C
7C
04
ENDCHAR
STARTCHAR section
ENCODING 167
SWIDTH 366 0
DWIDTH 13 0
BBX 13 28 0 -1
BITMAP
0006A400
007FF400
02F45000
0B800000
1F000000
2D000000
3C000000
78000000
74006400
795BFE00
3FFFBF40
1FE00F40
0B800F40
1F002E00
2D007800
3C01F000
3807C000
382FBD00
3FFFFF40
2FF95B80
06400780
00000B40
00002E00
0001F800
0007E000
002F8000
01FE0000
00A40000
ENDCHAR
STARTCHAR dieresis
ENCODING 168
SWIDTH 306 0
DWIDTH 11 0
BBX 8 3 2 24
BITMAP
6829
B83D
1014
ENDCHAR
STARTCHAR copyright
ENCODING 169
SWIDTH 485 0
DWIDTH 17 0
BBX 17 25 0 0
BITMAP
0000040000
0001FF8000
000BFBF400
002F40BC00
00BC002E00
01F4001F00
02D1A40F40
0787FD0B80
0B4F2D0780
0E1E0A07C0
1D2D0007C0
2C3C0007C0
2C3C000780
383C001B80
3838007F40
743C01FF00
742D07FE00
741FAFBD00
7407FDB800
780041F000
380007D000
2D001F4000
1F96FD0000
0BFFE00000
02FE400000
ENDCHAR
STARTCHAR ordfeminine
ENCODING 170
SWIDTH 227 0
DWIDTH 8 0
BBX 8 10 0 5
BITMAP
0010
01F8
0768
1D28
2878
70EC
A28C
D709
ED09
6405
ENDCHAR
STARTCHAR guillemotleft
ENCODING 171
SWIDTH 652 0
DWIDTH 23 0
BBX 20 20 1 4
BITMAP
0000000001
000000900B
000002D02E
00001F80BC
00007E07F4
0002F81FD0
000BE0BE00
002F42F400
01F80B9000
07D07E0000
2F41F40000
7D01F00000
3E40BD0000
0BE02F9000
02FD07F800
007F80BF40
0007F91BF8
0000BF81FD
00001F4028
0000010000
ENDCHAR
STARTCHAR logicalnot
ENCODING 172
SWIDTH 539 0
DWIDTH 19 0
BBX 16 11 2 4
BITMAP
00000154
6ABFFFFE
7EAAAAAE
0000000E
0000000E
0000000E
0000000B
0000000B
0000000B
0000000B
00000005
ENDCHAR
STARTCHAR uni00AD
ENCODING 173
SWIDTH 399 0
DWIDTH 14 0
BBX 14 6 0 6
BITMAP
00000690
0000BFE0
001BFE40
16FF9000
7FE40000
14000000
ENDCHAR
STARTCHAR registered
ENCODING 174
SWIDTH 382 0
DWIDTH 14 0
BBX 17 24 0 0
BITMAP
0001A90000
000BFFC000
002FAFF000
00B401B800
01C0002D00
0280000E00
07686A0B40
0B2FEAD740
0E2D00D780
1E3807C3C0
2D386E03C0
2C3AF407C0
383F8007C0
383FD00780
7439F90B80
74382F8F40
743802FF00
7438007E00
781400BC00
3C0001F400
2D0007D000
1F956F4000
0BFFF90000
02FE900000
ENDCHAR
STARTCHAR macron
ENCODING 175
SWIDTH 399 0
DWIDTH 14 0
BBX 14 3 0 24
BITMAP
00016A90
2AFFFFD0
7EAA5500
ENDCHAR
STARTCHAR degree
ENCODING 176
SWIDTH 201 0
DWIDTH 7 0
BBX 6 6 1 14
BITMAP
1500
7FC0
E1D0
D090
E1D0
7F80
ENDCHAR
STARTCHAR plusminus
ENCODING 177
SWIDTH 466 0
DWIDTH 17 0
BBX 14 18 0 2
BITMAP
00060000
000A0000
000A0000
000A0000
000A0000
000A0000
000A0050
000B6FE0
000FF940
1ABF4000
7E9F4000
100B4000
000B4000
00074000
00074540
005BFFE0
0FFFAA50
05400000
ENDCHAR
STARTCHAR twosuperior
ENCODING 178
SWIDTH 318 0
DWIDTH 11 0
BBX 11 12 0 5
BITMAP
009000
07B400
281800
601800
002400
002400
003000
00A000
00C000
0281A4
03B940
064000
ENDCHAR
STARTCHAR threesuperior
ENCODING 179
SWIDTH 280 0
DWIDTH 10 0
BBX 10 14 0 6
BITMAP
02B800
2D5800
601400
006000
01D000
03EA00
0F81C0
080090
000090
0001C0
000740
001D00
00B400
018000
ENDCHAR
STARTCHAR acute
ENCODING 180
SWIDTH 155 0
DWIDTH 6 0
BBX 5 5 0 21
BITMAP
0280
0BC0
2F40
7D00
2400
ENDCHAR
STARTCHAR mu
ENCODING 181
SWIDTH 387 0
DWIDTH 14 0
BBX 12 25 1 -5
BITMAP
100000
F00078
F00078
F00078
F00078
F0007C
F4007C
F4007C
F400BC
F400BC
F400FC
F401FC
F803FC
F807FC
F80FBC
FC3F3D
FFFC2D
EFE000
E10000
E00000
D00000
D00000
D00000
D00000
400000
ENDCHAR
STARTCHAR paragraph
ENCODING 182
SWIDTH 447 0
DWIDTH 16 0
BBX 15 23 0 0
BITMAP
001ABFE0
02FFFFE0
0FFFFFF0
2FFFF8B0
3FFFF8B0
3FFFF8B0
7FFFB8B0
3FFD7CB0
1A903CB0
00003CB0
00003CB4
00003CB4
00002C74
00002D74
00002D74
00002D74
00002D74
00001D74
00001D74
00001D38
00001D38
00001D38
00000810
ENDCHAR
STARTCHAR periodcentered
ENCODING 183
SWIDTH 128 0
DWIDTH 5 0
BBX 3 3 1 8
BITMAP
10
F4
F0
ENDCHAR
STARTCHAR cedilla
ENCODING 184
SWIDTH 322 0
DWIDTH 12 0
BBX 9 13 2 -11
BITMAP
100000
700000
B00000
B00000
B80000
7F8000
2FF400
01FE00
002F40
001F40
01BF40
7FFE00
6A9000
ENDCHAR
STARTCHAR onesuperior
ENCODING 185
SWIDTH 112 0
DWIDTH 4 0
BBX 2 13 1 6
BITMAP
40
90
90
90
D0
E0
E0
E0
E0
E0
A0
A0
60
ENDCHAR
STARTCHAR ordmasculine
ENCODING 186
SWIDTH 212 0
DWIDTH 8 0
BBX 8 10 0 5
BITMAP
0B90
1D74
281C
341C
701D
701C
702C
7074
75E0
2E40
ENDCHAR
STARTCHAR guillemotright
ENCODING 187
SWIDTH 625 0
DWIDTH 23 0
BBX 20 20 1 4
BITMAP
2401D00000
7E02F90000
2FE07F8000
06FD0BF800
006F90BF40
0007F81BE4
00007F41BD
00000BC02E
000003C01D
000007803C
00001F00F4
00007D07D0
0002F41F40
000BD0BD00
007F47F400
01FD1FD000
0BE07E0000
2F81F80000
7D02D00000
6001000000
ENDCHAR
STARTCHAR onequarter
ENCODING 188
SWIDTH 678 0
DWIDTH 24 0
BBX 22 28 1 -3
BITMAP
0000B0000000
0000E0000000
0001D0000000
0002C0000000
000380000000
400740000000
900B00000000
900E00009000
901D0002E000
D02D000BE000
E02C001FE000
E038003DE000
E07400B4E000
E0B002D0E000
E0E00740E000
E1D01E00E000
A2C07800E6A0
A381F16BFA50
A74BFE95E000
6B054000E000
0E000000E000
0D000000E000
1C000000E000
2C000000E000
38000000E000
74000000D000
B00000000000
600000000000
ENDCHAR
STARTCHAR onehalf
ENCODING 189
SWIDTH 693 0
DWIDTH 25 0
BBX 20 28 2 -3
BITMAP
0000380000
0000740000
0000B00000
0000E00000
8001D00000
C002C00000
C003C00000
C003800000
C007400000
D00B000000
D00E0BE000
D01D3EB400
D02DE03400
D03F802800
D07A003400
D0B0003400
D0E0007000
91D000A000
91C000D000
028001C000
0380038000
074007006E
0B000E6BA4
0E002FE400
1D00240000
2C00000000
3800000000
2400000000
ENDCHAR
STARTCHAR threequarters
ENCODING 190
SWIDTH 868 0
DWIDTH 31 0
BBX 24 28 1 -3
BITMAP
000000001E00
000500002D00
01BF80002C00
1F92C0003800
780280007540
50070000B380
000E0000EB80
00380001DF80
00B55002EF80
02FEAD03BA80
0BD00747F280
0500034BD280
0000034F8280
0000070F4280
00001D1E0281
0000783C06FF
0001E07DBFD4
000B80FE5280
003D01F00280
006400E00280
000001D00280
000002C00280
000003800280
000007400280
00000B000280
00000A000240
00000D000000
00000C000000
ENDCHAR
STARTCHAR questiondown
ENCODING 191
SWIDTH 541 0
DWIDTH 20 0
BBX 16 30 3 -1
BITMAP
0002C000
0002D000
00000000
00000000
00000000
00000000
00000000
00000000
00000000
00000000
00000000
00164000
00FFF400
0051BD00
00003D00
00003C00
0000F800
0007F000
001FC000
007E0000
01F80000
07D00000
0F400000
2D000000
78000000
B0000000
F00001BE
F4001FF8
7EAAFF90
1BFE9000
ENDCHAR
STARTCHAR Agrave
ENCODING 192
SWIDTH 390 0
DWIDTH 14 0
BBX 17 33 1 -1
BITMAP
0140000000
02D0000000
01F0000000
00B8000000
003C000000
0018000000
0280000000
03D0000000
03F0000000
07F4000000
07F8000000
07AC000000
0B5D000000
0B4A000000
0B47000000
0F03400000
0F03C00000
0F02D00000
1E01E00000
1E00F00500
1E00B5BF80
2E00BFE640
2E01FD0000
2E1BFC0000
2FFE7D0000
3F901D0000
3D000E0000
38000B0000
38000B4000
7800074000
7400038000
740002C000
000001C000
ENDCHAR
STARTCHAR Aacute
ENCODING 193
SWIDTH 390 0
DWIDTH 14 0
BBX 16 33 1 0
BITMAP
00D00000
03E00000
0FC00000
2F000000
18000000
00000000
07400000
0BC00000
0BD00000
0BE00000
0FF40000
0F780000
0F2C0000
1E1D0000
1E0E0000
1E0B0000
2D074000
2D038000
2D02C000
3D02D015
3C01F6FF
3C00FF96
3C02F800
7C1FF400
7FF9B800
7F403C00
B8002D00
B4001D00
B0000E00
B0000B00
F0000740
E0000340
00000240
ENDCHAR
STARTCHAR Acircumflex
ENCODING 194
SWIDTH 390 0
DWIDTH 14 0
BBX 18 37 -1 0
BITMAP
0010000000
00B8000000
01FD000000
03CB400000
0742D00000
0E00F00000
2D007C0000
38001F4000
B0000B4000
E000010000
0074000000
00BC000000
00BD000000
00BE000000
00FF400000
00F7800000
00F2C00000
01E1D00000
01E0E00000
01E0B00000
02D0740000
02D0380000
02D02C0000
03D02D0150
03C01F6FF0
03C00FF960
03C02F8000
07C1FF4000
07FF9B8000
07F403C000
0B8002D000
0B4001D000
0B0000E000
0B0000B000
0F00007400
0E00003400
0000002400
ENDCHAR
STARTCHAR Atilde
ENCODING 195
SWIDTH 390 0
DWIDTH 14 0
BBX 18 37 -1 0
BITMAP
02A4000000
1FFE01F000
3D1F03F000
780B8BD000
7403FF4000
0001FD0000
0000000000
0000000000
0000000000
0000000000
0074000000
00BC000000
00BD000000
00BE000000
00FF400000
00F7800000
00F2C00000
01E1D00000
01E0E00000
01E0B00000
02D0740000
02D0380000
02D02C0000
03D02D0150
03C01F6FF0
03C00FF960
03C02F8000
07C1FF4000
07FF9B8000
07F403C000
0B8002D000
0B4001D000
0B0000E000
0B0000B000
0F00007400
0E00003400
0000002400
ENDCHAR
STARTCHAR Adieresis
ENCODING 196
SWIDTH 390 0
DWIDTH 14 0
BBX 16 32 1 0
BITMAP
290A0000
3D1F0000
14050000
00000000
00000000
07400000
0BC00000
0BD00000
0BE00000
0FF40000
0F780000
0F2C0000
1E1D0000
1E0E0000
1E0B0000
2D074000
2D038000
2D02C000
3D02D015
3C01F6FF
3C00FF96
3C02F800
7C1FF400
7FF9B800
7F403C00
B8002D00
B4001D00
B0000E00
B0000B00
F0000740
E0000340
00000240
ENDCHAR
STARTCHAR Aring
ENCODING 197
SWIDTH 390 0
DWIDTH 14 0
BBX 17 32 0 0
BITMAP
06A8000000
7FFF000000
B80B400000
B007400000
B80F400000
3FFD000000
06F0000000
02F4000000
02F8000000
03FD000000
03DE000000
03CB000000
0787400000
0783800000
0782C00000
0B41D00000
0B40E00000
0B40B00000
0B40B40540
0F007DBFC0
0F003FE580
0F00BE0000
1F07FD0000
1FFE6E0000
1FD00F0000
2E000B4000
2D00074000
2C00038000
2C0002C000
3C0001D000
380000D000
0000009000
ENDCHAR
STARTCHAR AE
ENCODING 198
SWIDTH 708 0
DWIDTH 26 0
BBX 24 26 1 1
BITMAP
074000000050
0BC024001BD0
0BD07C02FE00
0BE03D6FE000
0FF42FFE0000
0F782FE00000
0F2C2E000000
1E1D1D000000
1E0E1D000000
1E0B1E000000
2D074E000280
2D038E001E00
2D02CE01F400
3D02DE1F8000
3C01FFF80000
3C00FFD00000
3C02FF400000
7C1FFF400000
7FF9BF40001F
7F403F4000BD
B8002F4007E0
B4001F402F40
B0000F41F800
B0000F9BD000
F0000FFE0000
E0000FE40000
ENDCHAR
STARTCHAR Ccedilla
ENCODING 199
SWIDTH 487 0
DWIDTH 18 0
BBX 16 39 1 -12
BITMAP
00004000
000BF800
002FBD00
00780A00
00F00200
02D00000
03800000
07400000
0F000000
0E000000
1D000000
2C000000
3C000000
78000000
74000000
B4000000
B0000004
F000001E
E000003D
E00000B8
E00001F0
E00003D0
F0000B40
B4002D00
7C01F400
2FEF9000
07F90000
00740000
00B40000
00B40000
00BE0000
007FD000
001BF800
0000BF00
00001F40
00002F80
0016FF40
00BFF900
00154000
ENDCHAR
STARTCHAR Egrave
ENCODING 200
SWIDTH 474 0
DWIDTH 17 0
BBX 16 33 1 0
BITMAP
00400000
01D00000
00F40000
007C0000
002D0000
00080000
00000000
20001BC0
B406FD00
B86FD000
7EFD0000
7FD00000
3D000000
3C000000
3C000000
2C000000
2C000740
2C002E00
2C02F800
2D1F8000
1EB90000
1FD00000
1F000000
1E000000
1E00002D
1E0001F8
1E000BD0
1E007E00
1E02F400
1E2F8000
1FFD0000
1FD00000
09000000
ENDCHAR
STARTCHAR Eacute
ENCODING 201
SWIDTH 474 0
DWIDTH 17 0
BBX 16 31 1 0
BITMAP
0000D000
0007D000
000F8000
002E0000
00180000
20001BC0
B406FD00
B86FD000
7EFD0000
7FD00000
3D000000
3C000000
3C000000
2C000000
2C000740
2C002E00
2C02F800
2D1F8000
1EB90000
1FD00000
1F000000
1E000000
1E00002D
1E0001F8
1E000BD0
1E007E00
1E02F400
1E2F8000
1FFD0000
1FD00000
09000000
ENDCHAR
STARTCHAR Ecircumflex
ENCODING 202
SWIDTH 474 0
DWIDTH 17 0
BBX 16 38 1 0
BITMAP
00050000
000F4000
002FD000
0038B400
00B03C00
01E01E00
02C00780
074002E0
0A0000B0
1D000010
00000000
00000000
20001BC0
B406FD00
B86FD000
7EFD0000
7FD00000
3D000000
3C000000
3C000000
2C000000
2C000740
2C002E00
2C02F800
2D1F8000
1EB90000
1FD00000
1F000000
1E000000
1E00002D
1E0001F8
1E000BD0
1E007E00
1E02F400
1E2F8000
1FFD0000
1FD00000
09000000
ENDCHAR
STARTCHAR Edieresis
ENCODING 203
SWIDTH 474 0
DWIDTH 17 0
BBX 16 32 1 0
BITMAP
01A0A400
02E0F400
00405000
00000000
00000000
00000000
20001BC0
B406FD00
B86FD000
7EFD0000
7FD00000
3D000000
3C000000
3C000000
2C000000
2C000740
2C002E00
2C02F800
2D1F8000
1EB90000
1FD00000
1F000000
1E000000
1E00002D
1E0001F8
1E000BD0
1E007E00
1E02F400
1E2F8000
1FFD0000
1FD00000
09000000
ENDCHAR
STARTCHAR Igrave
ENCODING 204
SWIDTH 153 0
DWIDTH 6 0
BBX 5 34 0 0
BITMAP
1000
7400
3D00
2F00
0B40
0200
0000
0900
0E00
0F00
0B00
0B00
0B00
0B40
0B40
0B40
0B40
0B40
0B40
0740
0740
0740
0740
0740
0740
0740
0740
0740
0740
0740
0740
0740
0740
0240
ENDCHAR
STARTCHAR Iacute
ENCODING 205
SWIDTH 153 0
DWIDTH 6 0
BBX 5 34 1 0
BITMAP
0740
1F40
3E00
B800
6000
0000
0000
2400
3800
3C00
2C00
2C00
2C00
2D00
2D00
2D00
2D00
2D00
2D00
1D00
1D00
1D00
1D00
1D00
1D00
1D00
1D00
1D00
1D00
1D00
1D00
1D00
1D00
0900
ENDCHAR
STARTCHAR Icircumflex
ENCODING 206
SWIDTH 153 0
DWIDTH 6 0
BBX 13 37 -3 0
BITMAP
00140000
007C0000
00FE0000
02D78000
0381E000
0B40B400
1E002D00
2C000F40
74000780
B0000100
00240000
00380000
003C0000
002C0000
002C0000
002C0000
002D0000
002D0000
002D0000
002D0000
002D0000
002D0000
001D0000
001D0000
001D0000
001D0000
001D0000
001D0000
001D0000
001D0000
001D0000
001D0000
001D0000
001D0000
001D0000
001D0000
00090000
ENDCHAR
STARTCHAR Idieresis
ENCODING 207
SWIDTH 153 0
DWIDTH 6 0
BBX 8 32 -1 0
BITMAP
281A
7C2E
1404
0000
0000
0240
0380
03C0
02C0
02C0
02C0
02D0
02D0
02D0
02D0
02D0
02D0
01D0
01D0
01D0
01D0
01D0
01D0
01D0
01D0
01D0
01D0
01D0
01D0
01D0
01D0
0090
ENDCHAR
STARTCHAR Eth
ENCODING 208
SWIDTH 554 0
DWIDTH 20 0
BBX 19 27 0 0
BITMAP
0080000000
00C0000000
02FAA94000
07FFFFF900
2FE0016FD0
3EE00001F4
11E0000078
01E000002C
01E000002C
01E000002C
01E0000038
00E0000074
00E00000B0
00E00001E0
00E00003C0
00B0000B40
00B0001E00
00B6A07C00
1AFFF0F400
7FFF93E000
00B40F8000
00702F0000
0070BC0000
0072F40000
0017D00000
000F400000
001D000000
ENDCHAR
STARTCHAR Ntilde
ENCODING 209
SWIDTH 541 0
DWIDTH 19 0
BBX 17 34 1 0
BITMAP
02A4000000
1FFE01F000
3D1F03F000
780B8BD000
7407FF4000
0001F90000
0000001400
0000003C00
0000002D00
0000001E00
4000001E00
E000001E00
FC00000F00
BE00000F00
BF80000F00
BFD0000F00
7AF0000F00
78B8000B00
783E000B00
381F400B00
3C07C00B00
3C02E00B00
2C00B40B00
2D003D0B00
2D001F0B40
1D00078B40
1E0002DF40
1E0000BF40
0F00003F40
0F00001F80
0F00000BC0
0B00000BC0
0B00000100
0600000000
ENDCHAR
STARTCHAR Ograve
ENCODING 210
SWIDTH 382 0
DWIDTH 14 0
BBX 14 32 0 0
BITMAP
00004000
0001D000
0000F400
0000BC00
00002D00
00000800
00000000
00004000
000BF400
003FFD00
00BD1F40
01E00B80
03C007C0
078003C0
0B4002C0
0F0002D0
1E0002D0
2E0002D0
2D0002D0
3C0003C0
380003C0
780007C0
74000780
74000B40
74000F00
74001E00
78003D00
38007C00
2D01F400
1F9BD000
0BFF4000
02F80000
ENDCHAR
STARTCHAR Oacute
ENCODING 211
SWIDTH 382 0
DWIDTH 14 0
BBX 14 31 0 0
BITMAP
00038000
000F8000
003F0000
007C0000
00600000
00000000
00004000
000BF400
003FFD00
00BD1F40
01E00B80
03C007C0
078003C0
0B4002C0
0F0002D0
1E0002D0
2E0002D0
2D0002D0
3C0003C0
380003C0
780007C0
74000780
74000B40
74000F00
74001E00
78003D00
38007C00
2D01F400
1F9BD000
0BFF4000
02F80000
ENDCHAR
STARTCHAR Ocircumflex
ENCODING 212
SWIDTH 382 0
DWIDTH 14 0
BBX 14 34 0 0
BITMAP
00140000
003D0000
00BF4000
00E2D000
02C0F000
07807800
0B001E00
1D000B80
280002C0
74004040
000BF400
003FFD00
00BD1F40
01E00B80
03C007C0
078003C0
0B4002C0
0F0002D0
1E0002D0
2E0002D0
2D0002D0
3C0003C0
380003C0
780007C0
74000780
74000B40
74000F00
74001E00
78003D00
38007C00
2D01F400
1F9BD000
0BFF4000
02F80000
ENDCHAR
STARTCHAR Otilde
ENCODING 213
SWIDTH 382 0
DWIDTH 14 0
BBX 15 32 0 0
BITMAP
00690000
07FF803C
0F87D0BC
1F02E1F4
0D00FFD0
00002F40
00000000
00004000
000BF400
003FFD00
00BD1F40
01E00B80
03C007C0
078003C0
0B4002C0
0F0002D0
1E0002D0
2E0002D0
2D0002D0
3C0003C0
380003C0
780007C0
74000780
74000B40
74000F00
74001E00
78003D00
38007C00
2D01F400
1F9BD000
0BFF4000
02F80000
ENDCHAR
STARTCHAR Odieresis
ENCODING 214
SWIDTH 382 0
DWIDTH 14 0
BBX 14 29 0 0
BITMAP
001A0A40
002E0F40
00040500
00000000
00004000
000BF400
003FFD00
00BD1F40
01E00B80
03C007C0
078003C0
0B4002C0
0F0002D0
1E0002D0
2E0002D0
2D0002D0
3C0003C0
380003C0
780007C0
74000780
74000B40
74000F00
74001E00
78003D00
38007C00
2D01F400
1F9BD000
0BFF4000
02F80000
ENDCHAR
STARTCHAR multiply
ENCODING 215
SWIDTH 454 0
DWIDTH 16 0
BBX 11 13 2 4
BITMAP
340010
2C0078
0E01F0
0743D0
02DF40
01FE00
00FC00
02FD00
0B4B00
1E0780
7803D0
1401E0
000040
ENDCHAR
STARTCHAR Oslash
ENCODING 216
SWIDTH 382 0
DWIDTH 14 0
BBX 14 28 0 -3
BITMAP
00004E00
000BFD00
003FFD00
00BD3F00
01E07F80
03C0B7C0
0780E3C0
0B41D2C0
0F02C2D0
1E0282D0
2E0382D0
2D0742D0
3C0B03C0
380E03C0
781D07C0
742C0780
74380B40
74740F00
74B01E00
78E03D00
39D07C00
2EC1F400
1FDBD000
0BFF4000
07F80000
0B000000
0E000000
09000000
ENDCHAR
STARTCHAR Ugrave
ENCODING 217
SWIDTH 450 0
DWIDTH 16 0
BBX 15 33 1 -4
BITMAP
00100000
00740000
007D0000
002F0000
000B4000
00020000
00000040
500000E0
F40001F0
F40001F0
F40002F0
B40002F0
B40003F0
B40003F0
B40007E0
B40007E0
B4000BE0
B4000BE0
B4000FE0
B4000FE0
B4001EE0
B4002DE0
740038E0
740074B0
7800F0B0
3C02D0B0
2E5B80B0
0FFE0074
01900074
00000074
00000034
00000034
00000034
ENDCHAR
STARTCHAR Uacute
ENCODING 218
SWIDTH 450 0
DWIDTH 16 0
BBX 15 30 1 -4
BITMAP
0000A000
0002F000
000BD000
001F4040
500900E0
F40001F0
F40001F0
F40002F0
B40002F0
B40003F0
B40003F0
B40007E0
B40007E0
B4000BE0
B4000BE0
B4000FE0
B4000FE0
B4001EE0
B4002DE0
740038E0
740074B0
7800F0B0
3C02D0B0
2E5B80B0
0FFE0074
01900074
00000074
00000034
00000034
00000034
ENDCHAR
STARTCHAR Ucircumflex
ENCODING 219
SWIDTH 450 0
DWIDTH 16 0
BBX 15 38 1 -4
BITMAP
00140000
003E0000
007F4000
00E2D000
02D0F000
03803C00
0B001E00
1E000780
2C0002D0
34000040
00000000
00000040
500000E0
F40001F0
F40001F0
F40002F0
B40002F0
B40003F0
B40003F0
B40007E0
B40007E0
B4000BE0
B4000BE0
B4000FE0
B4000FE0
B4001EE0
B4002DE0
740038E0
740074B0
7800F0B0
3C02D0B0
2E5B80B0
0FFE0074
01900074
00000074
00000034
00000034
00000034
ENDCHAR
STARTCHAR Udieresis
ENCODING 220
SWIDTH 450 0
DWIDTH 16 0
BBX 15 31 1 -4
BITMAP
00A06800
01F0B800
00501000
00000000
00000040
500000E0
F40001F0
F40001F0
F40002F0
B40002F0
B40003F0
B40003F0
B40007E0
B40007E0
B4000BE0
B4000BE0
B4000FE0
B4000FE0
B4001EE0
B4002DE0
740038E0
740074B0
7800F0B0
3C02D0B0
2E5B80B0
0FFE0074
01900074
00000074
00000034
00000034
00000034
ENDCHAR
STARTCHAR Yacute
ENCODING 221
SWIDTH 483 0
DWIDTH 17 0
BBX 17 34 0 0
BITMAP
00000B0000
00002F0000
00007D0000
0000F40000
0000900000
0000000000
0000000240
0000000380
0000000740
0000000B00
0000000E00
6000001D00
7800002D00
2D00003C00
1F40007800
0BC000B400
02E000F000
00F801E000
007D02D000
001F43C000
0007D78000
0002FF4000
0000BF0000
00003E0000
00003D0000
00007C0000
0000780000
0000B40000
0000F00000
0001E00000
0002D00000
0003C00000
0007800000
0003400000
ENDCHAR
STARTCHAR Thorn
ENCODING 222
SWIDTH 398 0
DWIDTH 14 0
BBX 13 28 1 1
BITMAP
7C000000
78000000
78000000
74000000
74000000
74015000
742FFD00
B4FFBF00
BAE00F40
BF800780
BE000780
BC000780
B8000740
B4000B40
B4001F00
F4002D00
F400B800
F402E000
F02F4000
F6FD0000
FFD00000
FE000000
F4000000
F4000000
F4000000
F4000000
B4000000
B4000000
ENDCHAR
STARTCHAR germandbls
ENCODING 223
SWIDTH 537 0
DWIDTH 19 0
BBX 18 26 1 0
BITMAP
0002FF4000
402FEBC000
E1F903C000
FB80038000
BE000B4000
7C001E0000
7800780000
3800F00000
3802C16900
380B6FEFD0
2C2FE402D0
2DBF4001D0
1FF8000280
1FE0000740
0F80000E00
0F40003C00
0F0000F400
0B0003D000
0B000F8000
07403E0000
0740B80000
0382F00000
0387800000
02C6000000
0280000000
0140000000
ENDCHAR
STARTCHAR agrave
ENCODING 224
SWIDTH 366 0
DWIDTH 13 0
BBX 13 27 0 0
BITMAP
00400000
00F00000
00B80000
003D0000
001E0000
00050000
00000000
00005000
0007FC00
001FFD00
007E3C00
00F83C00
01F03C00
03D07C00
07C0BD00
0F40FD00
1F02FD00
2D03DE00
3C0B8E00
781F0E00
B42E0B00
F07C0B00
E1F40B00
F7E00740
BFC00740
7F000740
14000100
ENDCHAR
STARTCHAR aacute
ENCODING 225
SWIDTH 366 0
DWIDTH 13 0
BBX 13 26 0 0
BITMAP
0001D000
0007D000
000F8000
002E0000
00180000
00000000
00005000
0007FC00
001FFD00
007E3C00
00F83C00
01F03C00
03D07C00
07C0BD00
0F40FD00
1F02FD00
2D03DE00
3C0B8E00
781F0E00
B42E0B00
F07C0B00
E1F40B00
F7E00740
BFC00740
7F000740
14000100
ENDCHAR
STARTCHAR acircumflex
ENCODING 226
SWIDTH 366 0
DWIDTH 13 0
BBX 13 34 0 0
BITMAP
00140000
007D0000
00FF0000
01D38000
03C1E000
0B407800
0E002D00
2C000F80
38000380
B0000100
00000000
00000000
00000000
00000000
00005000
0007FC00
001FFD00
007E3C00
00F83C00
01F03C00
03D07C00
07C0BD00
0F40FD00
1F02FD00
2D03DE00
3C0B8E00
781F0E00
B42E0B00
F07C0B00
E1F40B00
F7E00740
BFC00740
7F000740
14000100
ENDCHAR
STARTCHAR atilde
ENCODING 227
SWIDTH 366 0
DWIDTH 13 0
BBX 15 27 0 0
BITMAP
01A40000
0FFF00B4
2E0F42F4
3C07C7E0
3802FF80
0000BD00
00000000
00005000
0007FC00
001FFD00
007E3C00
00F83C00
01F03C00
03D07C00
07C0BD00
0F40FD00
1F02FD00
2D03DE00
3C0B8E00
781F0E00
B42E0B00
F07C0B00
E1F40B00
F7E00740
BFC00740
7F000740
14000100
ENDCHAR
STARTCHAR adieresis
ENCODING 228
SWIDTH 366 0
DWIDTH 13 0
BBX 13 27 0 0
BITMAP
0190A400
03E1F400
01405000
00000000
00000000
00000000
00000000
00005000
0007FC00
001FFD00
007E3C00
00F83C00
01F03C00
03D07C00
07C0BD00
0F40FD00
1F02FD00
2D03DE00
3C0B8E00
781F0E00
B42E0B00
F07C0B00
E1F40B00
F7E00740
BFC00740
7F000740
14000100
ENDCHAR
STARTCHAR aring
ENCODING 229
SWIDTH 366 0
DWIDTH 13 0
BBX 13 25 0 0
BITMAP
00054000
00BFF800
02F57D00
03C01D00
02D02D00
01FABC00
006FFC00
001FFD00
007E3C00
00F83C00
01F03C00
03D07C00
07C0BD00
0F40FD00
1F02FD00
2D03DE00
3C0B8E00
781F0E00
B42E0B00
F07C0B00
E1F40B00
F7E00740
BFC00740
7F000740
14000100
ENDCHAR
STARTCHAR ae
ENCODING 230
SWIDTH 705 0
DWIDTH 25 0
BBX 25 20 0 0
BITMAP
00005002FE0000
0007FC1FFFC000
001FFD2F02E000
007E3C7D02E000
00F83CF40BD000
01F03DF06E4000
03D07EE6F40000
07C0BFFF800000
0F40FFF9000000
1F02FFD0000140
2D03FFC0000B80
3C0B9F80001F40
781F0F80003E00
B42E0B8000BC00
F07C0B8002F000
E1F40B800B8000
F7E007D06E0000
BFC007FFF40000
7F00076E400000
14000100000000
ENDCHAR
STARTCHAR ccedilla
ENCODING 231
SWIDTH 390 0
DWIDTH 14 0
BBX 12 33 1 -11
BITMAP
001000
02FC00
0BEE00
1F5E00
2E0F00
3D0B00
7C0700
780000
B40000
B40000
B00000
F00000
E00000
E00006
E0000E
E0001E
A0002E
B0003D
7400B8
3D01F0
1FAF80
07F900
038000
078000
03D000
03F900
02FF80
005BF0
0001F8
0000BC
0006FC
02FFF4
03FA40
ENDCHAR
STARTCHAR egrave
ENCODING 232
SWIDTH 461 0
DWIDTH 17 0
BBX 17 27 -1 0
BITMAP
0001000000
0007800000
0003D00000
0001F00000
0000B40000
0000140000
0000000000
0000000000
0002FE0000
000FFF8000
002F42E000
007D02F000
00B807D000
01F02F4000
02E6F80000
03FF900000
0BFD000000
1FD0000140
7FC0000780
1B80001F40
0380002E00
038000BC00
038001F400
038007D000
02D02E0000
00FBF80000
006F900000
ENDCHAR
STARTCHAR eacute
ENCODING 233
SWIDTH 461 0
DWIDTH 17 0
BBX 17 26 -1 0
BITMAP
0000070000
00002F0000
00007D0000
0000F40000
0000900000
0000000000
0000000000
0002FE0000
000FFF8000
002F42E000
007D02F000
00B807D000
01F02F4000
02E6F80000
03FF900000
0BFD000000
1FD0000140
7FC0000780
1B80001F40
0380002E00
038000BC00
038001F400
038007D000
02D02E0000
00FBF80000
006F900000
ENDCHAR
STARTCHAR ecircumflex
ENCODING 234
SWIDTH 461 0
DWIDTH 17 0
BBX 17 34 -1 0
BITMAP
0000400000
0002E00000
0007F80000
000B1D0000
001E0B4000
003C02D000
007400F000
00E0007D00
01D0001D00
0380000400
0000000000
0000000000
0000000000
0000000000
0000000000
0002FE0000
000FFF8000
002F42E000
007D02F000
00B807D000
01F02F4000
02E6F80000
03FF900000
0BFD000000
1FD0000140
7FC0000780
1B80001F40
0380002E00
038000BC00
038001F400
038007D000
02D02E0000
00FBF80000
006F900000
ENDCHAR
STARTCHAR edieresis
ENCODING 235
SWIDTH 461 0
DWIDTH 17 0
BBX 17 27 -1 0
BITMAP
000A468000
001F4BC000
0005010000
0000000000
0000000000
0000000000
0000000000
0000000000
0002FE0000
000FFF8000
002F42E000
007D02F000
00B807D000
01F02F4000
02E6F80000
03FF900000
0BFD000000
1FD0000140
7FC0000780
1B80001F40
0380002E00
038000BC00
038001F400
038007D000
02D02E0000
00FBF80000
006F900000
ENDCHAR
STARTCHAR igrave
ENCODING 236
SWIDTH 132 0
DWIDTH 5 0
BBX 5 31 -1 -1
BITMAP
1000
7400
3D00
2F00
0B40
0240
0000
0000
0000
0500
0B40
0B40
0B40
0B40
0F40
0F40
0B40
0B40
0B40
0B40
0B40
0B40
0B40
0B40
0B40
0B40
0B40
0B40
0B40
0740
0100
ENDCHAR
STARTCHAR iacute
ENCODING 237
SWIDTH 132 0
DWIDTH 5 0
BBX 5 32 1 -1
BITMAP
0100
0B40
2F00
7D00
F400
5000
0000
0000
0000
0000
5000
B400
B400
B400
B400
F400
F400
B400
B400
B400
B400
B400
B400
B400
B400
B400
B400
B400
B400
B400
7400
1000
ENDCHAR
STARTCHAR icircumflex
ENCODING 238
SWIDTH 132 0
DWIDTH 5 0
BBX 13 35 -4 -1
BITMAP
00100000
00B80000
01FE0000
02C78000
0782D000
0B00B400
1D003D00
3C001F40
74000780
A0000100
00000000
00000000
00000000
00140000
002D0000
002D0000
002D0000
002D0000
003D0000
003D0000
002D0000
002D0000
002D0000
002D0000
002D0000
002D0000
002D0000
002D0000
002D0000
002D0000
002D0000
002D0000
002D0000
001D0000
00040000
ENDCHAR
STARTCHAR idieresis
ENCODING 239
SWIDTH 132 0
DWIDTH 5 0
BBX 7 28 -1 -1
BITMAP
A428
F47C
5014
0000
0000
0000
0500
0B40
0B40
0B40
0B40
0F40
0F40
0B40
0B40
0B40
0B40
0B40
0B40
0B40
0B40
0B40
0B40
0B40
0B40
0B40
0740
0100
ENDCHAR
STARTCHAR eth
ENCODING 240
SWIDTH 481 0
DWIDTH 17 0
BBX 15 23 2 -1
BITMAP
00780000
007C0000
002E0000
000F0000
000B8000
0003C164
01ABFFF8
07FFF900
0150B400
00003800
00002C00
0BE01D00
2FFD1E00
7EBF4E00
7407DE00
B001FD00
B000BD00
7400BC00
3800F400
2D07E000
0FFF8000
02FD0000
00400000
ENDCHAR
STARTCHAR ntilde
ENCODING 241
SWIDTH 483 0
DWIDTH 17 0
BBX 15 30 1 0
BITMAP
00A90000
07FF807C
0F47C0FC
1E02E2F4
1D00FFD0
00007E40
00000000
00000000
00000000
50001E00
E000FFC0
F003FBD0
B00BD0E0
B40F40B0
B42F00B4
B43D0074
B83C0078
78780078
78B40078
7CB0007C
7CE0003C
7DD0003C
3ED0003C
3FC0003C
3F80003C
3F40003C
3F40002C
2F00002C
2F00002C
2D000000
ENDCHAR
STARTCHAR ograve
ENCODING 242
SWIDTH 266 0
DWIDTH 10 0
BBX 9 27 0 0
BITMAP
050000
0B4000
07C000
02E000
00F000
006000
000000
02A000
0BF800
0FFD00
0E0700
1D0340
2C0380
2C02C0
3802C0
3802C0
7803C0
7803C0
7803C0
780780
780780
780B40
380F00
382D00
3DBC00
2FF000
1F8000
ENDCHAR
STARTCHAR oacute
ENCODING 243
SWIDTH 266 0
DWIDTH 10 0
BBX 9 26 0 0
BITMAP
000D00
003E00
00FC00
01F000
018000
000000
02A000
0BF800
0FFD00
0E0700
1D0340
2C0380
2C02C0
3802C0
3802C0
7803C0
7803C0
7803C0
780780
780780
780B40
380F00
382D00
3DBC00
2FF000
1F8000
ENDCHAR
STARTCHAR ocircumflex
ENCODING 244
SWIDTH 266 0
DWIDTH 10 0
BBX 13 34 -2 0
BITMAP
00140000
003D0000
00BF4000
01E3C000
02C0E000
07407800
0B001E00
1D000B80
380003C0
74000040
00000000
00000000
00000000
00000000
002A0000
00BF8000
00FFD000
00E07000
01D03400
02C03800
02C02C00
03802C00
03802C00
07803C00
07803C00
07803C00
07807800
07807800
0780B400
0380F000
0382D000
03DBC000
02FF0000
01F80000
ENDCHAR
STARTCHAR otilde
ENCODING 245
SWIDTH 266 0
DWIDTH 10 0
BBX 14 28 -1 0
BITMAP
06A00000
2FFC02D0
B83D07D0
F41F1F80
A00BFE00
0002F400
00000000
00000000
00A80000
02FE0000
03FF4000
0381C000
0740D000
0B00E000
0B00B000
0E00B000
0E00B000
1E00F000
1E00F000
1E00F000
1E01E000
1E01E000
1E02D000
0E03C000
0E0B4000
0F6F0000
0BFC0000
07E00000
ENDCHAR
STARTCHAR odieresis
ENCODING 246
SWIDTH 266 0
DWIDTH 10 0
BBX 9 27 0 0
BITMAP
1A0640
2E0F40
040500
000000
000000
000000
000000
02A000
0BF800
0FFD00
0E0700
1D0340
2C0380
2C02C0
3802C0
3802C0
7803C0
7803C0
7803C0
780780
780780
780B40
380F00
382D00
3DBC00
2FF000
1F8000
ENDCHAR
STARTCHAR divide
ENCODING 247
SWIDTH 345 0
DWIDTH 12 0
BBX 11 12 1 4
BITMAP
004000
00E000
00E000
000000
0056A4
BFFFF4
AA5550
000000
000000
001000
00B000
00A000
ENDCHAR
STARTCHAR oslash
ENCODING 248
SWIDTH 266 0
DWIDTH 10 0
BBX 10 24 0 -3
BITMAP
0000D0
02A1D0
0BFBC0
0FFF40
0E0B00
1D0F40
2C1F80
2C2FC0
383AC0
3876C0
78B3C0
78E3C0
79D3C0
7AC780
7B4780
7F0B40
3E0F00
3D2D00
3DBC00
3FF000
7F8000
B00000
E00000
900000
ENDCHAR
STARTCHAR ugrave
ENCODING 249
SWIDTH 387 0
DWIDTH 14 0
BBX 12 28 1 -1
BITMAP
014000
02D000
01F000
00B800
002C00
000800
000000
000000
000000
500010
B00078
B00078
B00078
B00078
B00078
B40078
B400B8
B400B8
B400B8
B400F8
7402F8
7803F8
780BF8
3C1FBC
2C7E2C
1FF82D
0BE01E
014009
ENDCHAR
STARTCHAR uacute
ENCODING 250
SWIDTH 387 0
DWIDTH 14 0
BBX 12 27 1 -1
BITMAP
000280
000B80
002F40
007D00
006000
000000
000000
000000
500010
B00078
B00078
B00078
B00078
B00078
B40078
B400B8
B400B8
B400B8
B400F8
7402F8
7803F8
780BF8
3C1FBC
2C7E2C
1FF82D
0BE01E
014009
ENDCHAR
STARTCHAR ucircumflex
ENCODING 251
SWIDTH 387 0
DWIDTH 14 0
BBX 13 35 1 -1
BITMAP
00500000
00F80000
02FD0000
038B4000
0B43C000
0E00F000
2C007800
78002E00
B0000B40
D0000100
00000000
00000000
00000000
00000000
00000000
00000000
50001000
B0007800
B0007800
B0007800
B0007800
B0007800
B4007800
B400B800
B400B800
B400B800
B400F800
7402F800
7803F800
780BF800
3C1FBC00
2C7E2C00
1FF82D00
0BE01E00
01400900
ENDCHAR
STARTCHAR udieresis
ENCODING 252
SWIDTH 387 0
DWIDTH 14 0
BBX 12 28 1 -1
BITMAP
068190
0BC3E0
010140
000000
000000
000000
000000
000000
000000
500010
B00078
B00078
B00078
B00078
B00078
B40078
B400B8
B400B8
B400B8
B400F8
7402F8
7803F8
780BF8
3C1FBC
2C7E2C
1FF82D
0BE01E
014009
ENDCHAR
STARTCHAR yacute
ENCODING 253
SWIDTH 363 0
DWIDTH 13 0
BBX 12 40 1 -14
BITMAP
000740
001F40
007E00
00B800
006000
000000
000000
000008
00001D
40001D
F0001D
F8001D
7C002D
2E002D
1F402D
0B802D
03D02D
01F02D
00B83C
003D3C
001F7C
000BFC
0007FC
0002FC
0000FC
000078
000038
000078
000078
000078
000074
000074
0000B4
0000B4
0000B0
0000B0
0000F0
0000F0
0000E0
000050
ENDCHAR
STARTCHAR thorn
ENCODING 254
SWIDTH 439 0
DWIDTH 16 0
BBX 14 25 1 -1
BITMAP
50000000
F0000000
F001AA40
F02FEBD0
F1F800B0
BB8000F0
BE0001E0
BC0002D0
B4000780
B0001E00
B0007800
7002F000
741B8000
747E0000
7AF80000
7FD00000
7F400000
78000000
74000000
74000000
74000000
70000000
B0000000
B0000000
A0000000
ENDCHAR
STARTCHAR ydieresis
ENCODING 255
SWIDTH 363 0
DWIDTH 13 0
BBX 12 41 1 -14
BITMAP
064280
0F47D0
050140
000000
000000
000000
000000
000000
000008
00001D
40001D
F0001D
F8001D
7C002D
2E002D
1F402D
0B802D
03D02D
01F02D
00B83C
003D3C
001F7C
000BFC
0007FC
0002FC
0000FC
000078
000038
000078
000078
000078
000074
000074
0000B4
0000B4
0000B0
0000B0
0000F0
0000F0
0000E0
000050
ENDCHAR
STARTCHAR Amacron
ENCODING 256
SWIDTH 390 0
DWIDTH 14 0
BBX 17 32 0 0
BITMAP
00056A8000
6AFFFFC000
BEA9550000
0000000000
0000000000
01D0000000
02F0000000
02F4000000
02F8000000
03FD000000
03DE000000
03CB000000
0787400000
0783800000
0782C00000
0B41D00000
0B40E00000
0B40B00000
0F40B40540
0F007DBFC0
0F003FE580
0F00BE0000
1F07FD0000
1FFE6E0000
1FD00F0000
2E000B4000
2D00074000
2C00038000
2C0002C000
3C0001D000
380000D000
0000009000
ENDCHAR
STARTCHAR amacron
ENCODING 257
SWIDTH 366 0
DWIDTH 13 0
BBX 13 27 0 0
BITMAP
00056A80
6AFFFFC0
BEA95500
00000000
00000000
00000000
00000000
00005000
0007FC00
001FFD00
007E3C00
00F83C00
01F03C00
03D07C00
07C0BD00
0F40FD00
1F02FD00
2D03DE00
3C0B8E00
781F0E00
B42E0B00
F07C0B00
E1F40B00
F7E00740
BFC00740
7F000740
14000100
ENDCHAR
STARTCHAR Abreve
ENCODING 258
SWIDTH 390 0
DWIDTH 14 0
BBX 16 35 1 0
BITMAP
00005000
3801E000
2D07D000
0BEF8000
02FE0000
00500000
00000000
00000000
07400000
0BC00000
0BD00000
0BE00000
0FF40000
0F780000
0F2C0000
1E1D0000
1E0E0000
1E0B0000
2D074000
2D038000
2D02C000
3D02D015
3C01F6FF
3C00FF96
3C02F800
7C1FF400
7FF9B800
7F403C00
B8002D00
B4001D00
B0000E00
B0000B00
F0000740
E0000340
00000240
ENDCHAR
STARTCHAR abreve
ENCODING 259
SWIDTH 366 0
DWIDTH 13 0
BBX 13 27 0 0
BITMAP
00000500
07402D00
03D0BC00
01FBF400
007FD000
00050000
00000000
00005000
0007FC00
001FFD00
007E3C00
00F83C00
01F03C00
03D07C00
07C0BD00
0F40FD00
1F02FD00
2D03DE00
3C0B8E00
781F0E00
B42E0B00
F07C0B00
E1F40B00
F7E00740
BFC00740
7F000740
14000100
ENDCHAR
STARTCHAR Aogonek
ENCODING 260
SWIDTH 390 0
DWIDTH 14 0
BBX 17 36 1 -9
BITMAP
0740000000
0BC0000000
0BD0000000
0BE0000000
0FF4000000
0F78000000
0F2C000000
1E1D000000
1E0E000000
1E0B000000
2D07400000
2D03800000
2D02C00000
3D02D01500
3C01F6FF00
3C00FF9600
3C02F80000
7C1FF40000
7FF9B80000
7F403C0000
B8002D0000
B4001D0000
B0000E0000
B0000B0000
F000074000
E000074000
0000074000
00001F4000
00007D0000
0000B40000
0000F00000
0000E00000
0000E00100
0000B96F40
00007FFE00
00001AA400
ENDCHAR
STARTCHAR aogonek
ENCODING 261
SWIDTH 366 0
DWIDTH 13 0
BBX 16 28 0 -8
BITMAP
00005000
0007FC00
001FFD00
007E3C00
00F83C00
01F03C00
03D07C00
07C0BD00
0F40FD00
1F02FD00
2D03DE00
3C0B8E00
781F0E00
B42E0B00
F07C0B00
E1F40B00
F7E00740
BFC00740
7F000B40
14003E00
0000B800
0000F000
0001E000
0001E000
0001E01A
0000BAFF
00003FF9
00000550
ENDCHAR
STARTCHAR Cacute
ENCODING 262
SWIDTH 487 0
DWIDTH 18 0
BBX 16 32 1 0
BITMAP
0000B000
0002F000
0007D000
000F4000
00090000
00004000
000BF800
002FBD00
00780A00
00F00200
02D00000
03800000
07400000
0F000000
0E000000
1D000000
2C000000
3C000000
78000000
74000000
B4000000
B0000004
F000001E
E000003D
E00000B8
E00001F0
E00003D0
F0000B40
B4002D00
7C01F400
2FEF8000
07F90000
ENDCHAR
STARTCHAR cacute
ENCODING 263
SWIDTH 390 0
DWIDTH 14 0
BBX 12 29 1 0
BITMAP
000A00
002F00
00BD00
01F400
009000
000000
000000
001000
02FC00
0BEE00
1F5E00
2E0F00
3D0B00
7C0700
780000
B40000
B40000
B00000
F00000
E00000
E00006
E0000E
E0001E
A0002E
B0003D
7400B8
3D01F0
1FAF80
06F900
ENDCHAR
STARTCHAR Ccircumflex
ENCODING 264
SWIDTH 487 0
DWIDTH 18 0
BBX 16 36 1 0
BITMAP
00050000
001F0000
003FC000
0075E000
00E07800
02D02E00
03800B40
0B0003E0
0E0001E0
2C004040
000BF800
002FBD00
00780A00
00F00200
02D00000
03800000
07400000
0F000000
0E000000
1D000000
2C000000
3C000000
78000000
74000000
B4000000
B0000004
F000001E
E000003D
E00000B8
E00001F0
E00003D0
F0000B40
B4002D00
7C01F400
2FEF8000
07F90000
ENDCHAR
STARTCHAR ccircumflex
ENCODING 265
SWIDTH 390 0
DWIDTH 14 0
BBX 13 34 1 0
BITMAP
00500000
00F80000
01FD0000
038B4000
0B42D000
0E00F000
2C007800
38001F00
B0000B40
D0000100
00000000
00000000
00100000
02FC0000
0BEE0000
1F5E0000
2E0F0000
3D0B0000
7C070000
78000000
B4000000
B4000000
B0000000
F0000000
E0000000
E0000600
E0000E00
E0001E00
A0002E00
B0003D00
7400B800
3D01F000
1FAF8000
06F90000
ENDCHAR
STARTCHAR Cdotaccent
ENCODING 266
SWIDTH 487 0
DWIDTH 18 0
BBX 16 32 1 0
BITMAP
00078000
000B8000
00010000
00000000
00000000
00004000
000BF800
002FBD00
00780A00
00F00200
02D00000
03800000
07400000
0F000000
0E000000
1D000000
2C000000
3C000000
78000000
74000000
B4000000
B0000004
F000001E
E000003D
E00000B8
E00001F0
E00003D0
F0000B40
B4002D00
7C01F400
2FEF8000
07F90000
ENDCHAR
STARTCHAR cdotaccent
ENCODING 267
SWIDTH 390 0
DWIDTH 14 0
BBX 12 25 1 0
BITMAP
009000
02D000
004000
001000
02FC00
0BED00
1F5E00
2E0F00
3C0B00
780700
780000
B40000
B00000
F00000
E00000
E00000
E00006
E0000E
E0001E
E0002D
B0003C
7400B8
3D02E0
1FAF80
06F900
ENDCHAR
STARTCHAR Ccaron
ENCODING 268
SWIDTH 487 0
DWIDTH 18 0
BBX 16 34 1 0
BITMAP
09000040
074001E0
02C00780
00E01D00
0078B400
002FD000
000A0000
00004000
000BF800
002FBD00
00780A00
00F00200
02D00000
03800000
07400000
0F000000
0E000000
1D000000
2C000000
3C000000
78000000
74000000
B4000000
B0000004
F000001E
E000003D
E00000B8
E00001F0
E00003D0
F0000B40
B4002D00
7C01F400
2FEF8000
07F90000
ENDCHAR
STARTCHAR ccaron
ENCODING 269
SWIDTH 390 0
DWIDTH 14 0
BBX 12 29 1 0
BITMAP
900001
74001F
2D0078
0B01E0
038740
01FD00
006400
001000
02FC00
0BEE00
1F5E00
2E0F00
3D0B00
7C0700
780000
B40000
B40000
B00000
F00000
E00000
E00006
E0000E
E0001E
A0002E
B0003D
7400B8
3D01F0
1FAF80
06F900
ENDCHAR
STARTCHAR Dcaron
ENCODING 270
SWIDTH 554 0
DWIDTH 20 0
BBX 18 34 1 0
BITMAP
0180000400
00A0002D00
003800B400
001D02D000
000B4A0000
0002F80000
0000900000
0200000000
0300000000
0BEAA50000
1FFFFFE400
BF8005BF40
FB800007D0
47800001E0
07800000B0
07800000B0
07800000B0
07800000E0
03800001D0
03800002C0
0380000780
0380000F00
02C0002D00
02C0007800
02C001F000
02C003D000
02C00F8000
01C03E0000
01C0BC0000
01C2F00000
01CBD00000
005F400000
003D000000
0074000000
ENDCHAR
STARTCHAR Emacron
ENCODING 274
SWIDTH 474 0
DWIDTH 17 0
BBX 16 31 1 0
BITMAP
00056A80
6AFFFFC0
BEA95500
00000000
00000000
20001BC0
B406FD00
B86FD000
7EFD0000
7FD00000
3D000000
3C000000
3C000000
2C000000
2C000740
2C002E00
2C02F800
2D1F8000
1EB90000
1FD00000
1F000000
1E000000
1E00002D
1E0001F8
1E000BD0
1E007E00
1E02F400
1E2F8000
1FFD0000
1FD00000
09000000
ENDCHAR
STARTCHAR emacron
ENCODING 275
SWIDTH 461 0
DWIDTH 17 0
BBX 17 27 -1 0
BITMAP
000015A900
01ABFFFE00
03EAA55400
0000000000
0000000000
0000000000
0000000000
0000000000
0002FE0000
000FFF8000
002F42E000
007D02F000
00B807D000
01F02F4000
02E6F80000
03FF900000
0BFD000000
1FD0000140
7FC0000780
1B80001F40
0380002E00
038000BC00
038001F400
038007D000
02D02E0000
00FBF80000
006F900000
ENDCHAR
STARTCHAR Ebreve
ENCODING 276
SWIDTH 474 0
DWIDTH 17 0
BBX 16 33 1 0
BITMAP
00000200
02C00F00
01E02E00
007EFC00
001FE000
00054000
00000000
20001BC0
B406FD00
B86FD000
7EFD0000
7FD00000
3D000000
3C000000
3C000000
2C000000
2C000740
2C002E00
2C02F800
2D1F8000
1EB90000
1FD00000
1F000000
1E000000
1E00002D
1E0001F8
1E000BD0
1E007E00
1E02F400
1E2F8000
1FFD0000
1FD00000
09000000
ENDCHAR
STARTCHAR ebreve
ENCODING 277
SWIDTH 461 0
DWIDTH 17 0
BBX 17 27 -1 0
BITMAP
0000002000
002C00F000
001F02E000
0007EFC000
0001FF0000
0000140000
0000000000
0000000000
0002FE0000
000FFF8000
002F42E000
007D02F000
00B807D000
01F02F4000
02E6F80000
03FF900000
0BFD000000
1FD0000140
7FC0000780
1B80001F40
0380002E00
038000BC00
038001F400
038007D000
02D02E0000
00FBF80000
006F900000
ENDCHAR
STARTCHAR Edotaccent
ENCODING 278
SWIDTH 474 0
DWIDTH 17 0
BBX 16 29 1 0
BITMAP
002D0000
003D0000
00140000
20001BC0
B406FD00
B86FD000
7EFD0000
7FD00000
3D000000
3C000000
3C000000
2C000000
2C000740
2C002E00
2C02F800
2D1F8000
1EB90000
1FD00000
1F000000
1E000000
1E00002D
1E0001F8
1E000BD0
1E007E00
1E02F400
1E2F8000
1FFD0000
1FD00000
09000000
ENDCHAR
STARTCHAR edotaccent
ENCODING 279
SWIDTH 461 0
DWIDTH 17 0
BBX 17 22 -1 0
BITMAP
0000780000
0000F80000
0000100000
0002FE0000
000FFF8000
002F42E000
007D02F000
00B807D000
01F02F4000
02E6F80000
03FF900000
0BFD000000
1FD0000140
7FC0000780
1B80001F40
0380002E00
038000BC00
038001F400
038007D000
02D02E0000
00FBF80000
006F900000
ENDCHAR
STARTCHAR Eogonek
ENCODING 280
SWIDTH 474 0
DWIDTH 17 0
BBX 16 30 1 -4
BITMAP
20001BC0
B406FD00
B86FD000
7EFD0000
7FD00000
3D000000
3C000000
3C000000
2C000000
2C000740
2C002E00
2C02F800
2D1F8000
1EB90000
1FD00000
1F000000
1E000000
1E00002D
1E0001F8
1E000BD0
1E007E00
1E02F800
1E2FD000
1FFF8000
1FDB4000
090B4000
00074064
0003EBF8
0001FFE0
00001500
ENDCHAR
STARTCHAR eogonek
ENCODING 281
SWIDTH 461 0
DWIDTH 17 0
BBX 17 27 -1 -8
BITMAP
0002FE0000
000FFF8000
002F42E000
007D02F000
00B807D000
01F02F4000
02E6F80000
03FF900000
0BFD000000
1FD0000140
7FC0000780
1B80001F40
0380002E00
038000BC00
038001F400
038007D000
02D02E0000
00FBF80000
006FE00000
000B800000
000F000000
001E000000
001E000000
000E01A000
000BEFF000
0002FF8000
0000540000
ENDCHAR
STARTCHAR Ecaron
ENCODING 282
SWIDTH 474 0
DWIDTH 17 0
BBX 16 33 1 0
BITMAP
24000000
1D0007C0
0B001E00
03807400
01E2D000
007F4000
00280000
20001BC0
B406FD00
B86FD000
7EFD0000
7FD00000
3D000000
3C000000
3C000000
2C000000
2C000740
2C002E00
2C02F800
2D1F8000
1EB90000
1FD00000
1F000000
1E000000
1E00002D
1E0001F8
1E000BD0
1E007E00
1E02F400
1E2F8000
1FFD0000
1FD00000
09000000
ENDCHAR
STARTCHAR ecaron
ENCODING 283
SWIDTH 461 0
DWIDTH 17 0
BBX 17 29 -1 0
BITMAP
0180000400
00E0002D00
007400F400
002D078000
000B1E0000
0003F40000
0001900000
0000000000
0000000000
0000000000
0002FE0000
000FFF8000
002F42E000
007D02F000
00B807D000
01F02F4000
02E6F80000
03FF900000
0BFD000000
1FD0000140
7FC0000780
1B80001F40
0380002E00
038000BC00
038001F400
038007D000
02D02E0000
00FBF80000
006F900000
ENDCHAR
STARTCHAR Gcircumflex
ENCODING 284
SWIDTH 591 0
DWIDTH 21 0
BBX 21 38 0 -4
BITMAP
000014000000
00007C000000
0000FF000000
0001D7800000
000381E00000
000B40B40000
000E002D0000
002C000F8000
007800078000
00B000010000
000000540000
00000BFC0000
00002F900000
0000F8000000
0003C0000000
000B40000000
001E00000000
003C00000000
00B400000000
01E000001540
02D0001BFF40
038001FFFD00
0B400155B800
0E000001F400
1D000002F400
2C000007F000
3C00000FF000
3800002FF000
780000BDE000
780007F0E000
3D002F80E000
2FEAFE01E000
0BFFE401F000
00690001F000
00000000F000
00000000F000
00000000B400
000000006000
ENDCHAR
STARTCHAR gcircumflex
ENCODING 285
SWIDTH 437 0
DWIDTH 16 0
BBX 15 50 0 -16
BITMAP
00050000
000F4000
002FD000
0078F000
00B03800
01D01E00
02C00780
074002E0
0E0000F0
1D000010
00000000
00000000
00000000
00000000
00006A00
0002FFC0
000F9BD0
003D0BD0
00B40FD0
01E02EE0
03C03AE0
074076E0
0F00F2E0
1E01E2F0
2D03D1F0
3C0781F0
380F41F0
742E01F4
747D01F4
7EF800F4
3FE000F4
1F8000F4
000000F8
000000F8
000000F8
000000F4
000000F4
000000F0
000001F0
000001E0
000002D0
000003C0
00000780
00000B40
00001F00
00007D00
0001F800
016FE000
02FF8000
00140000
ENDCHAR
STARTCHAR Gbreve
ENCODING 286
SWIDTH 591 0
DWIDTH 21 0
BBX 21 34 0 -4
BITMAP
000000060000
0002C00F0000
0001E02E0000
00007EFC0000
00002FE00000
000005400000
000000540000
00000BFC0000
00002F900000
0000F8000000
0003C0000000
000B40000000
001E00000000
003C00000000
00B400000000
01E000001540
02D0001BFF40
038001FFFD00
0B400155B800
0E000001F400
1D000002F400
2C000007F000
3C00000FF000
3800002FF000
780000BDE000
780007F0E000
3D002F80E000
2FEAFE01E000
0BFFE401F000
00690001F000
00000000F000
00000000F000
00000000B400
000000006000
ENDCHAR
STARTCHAR gbreve
ENCODING 287
SWIDTH 437 0
DWIDTH 16 0
BBX 15 45 0 -16
BITMAP
00000140
00E00780
00B81F40
002FBE00
000BF800
00015000
00000000
00000000
00000000
00006A00
0002FFC0
000F9BD0
003D0BD0
00B40FD0
01E02EE0
03C03AE0
074076E0
0F00F2E0
1E01E2F0
2D03D1F0
3C0781F0
380F41F0
742E01F4
747D01F4
7EF800F4
3FE000F4
1F8000F4
000000F8
000000F8
000000F8
000000F4
000000F4
000000F0
000001F0
000001E0
000002D0
000003C0
00000780
00000B40
00001F00
00007D00
0001F800
016FE000
02FF8000
00140000
ENDCHAR
STARTCHAR Gdotaccent
ENCODING 288
SWIDTH 591 0
DWIDTH 21 0
BBX 20 33 1 -4
BITMAP
00002D0000
00003D0000
0000140000
0000000000
0000000000
0000015000
00000BF800
00007F9000
0001F40000
0007800000
000F000000
002D000000
0078000000
00F0000000
02D0000015
0380001BFF
074002FFF8
0F000155F4
1D000001F0
2C000003F0
3800000BE0
7800001FE0
7400007FE0
B40001F9D0
B40007E1D0
7C006F81D0
3FEBFD02E0
0BFFE002E0
00690002E0
00000001E0
00000001E0
00000000F0
0000000090
ENDCHAR
STARTCHAR gdotaccent
ENCODING 289
SWIDTH 437 0
DWIDTH 16 0
BBX 15 40 0 -16
BITMAP
00006C00
0000BC00
00001000
00000000
00006A00
0002FFC0
000F9BD0
003D0BD0
00B40FD0
01E02EE0
03C03AE0
074076E0
0F00F2E0
1E01E2F0
2D03D1F0
3C0781F0
380F41F0
742E01F4
747D01F4
7EF800F4
3FE000F4
1F8000F4
000000F8
000000F8
000000F8
000000F4
000000F4
000000F0
000001F0
000001E0
000002D0
000003C0
00000780
00000B40
00001F00
00007D00
0001F800
016FE000
02FF8000
00140000
ENDCHAR
STARTCHAR Gcommaaccent
ENCODING 290
SWIDTH 591 0
DWIDTH 21 0
BBX 21 36 0 -12
BITMAP
000000540000
00000BFC0000
00002F900000
0000F8000000
0003C0000000
000B40000000
001E00000000
003C00000000
00B400000000
01E000001540
02D0001BFF40
038001FFFD00
0B400155B800
0E000001F400
1D000002F400
2C000007F000
3C00000FF000
3800002FF000
780000BDE000
780007F0E000
3D002F80E000
2FEAFE01E000
0BFFE401F000
00690001F000
00000000F000
00000000F000
00000000B400
000008006000
00002E000000
00002E000000
00002E000000
00002E000000
00002D000000
00002C000000
00002C000000
000014000000
ENDCHAR
STARTCHAR Hcircumflex
ENCODING 292
SWIDTH 424 0
DWIDTH 15 0
BBX 13 37 1 0
BITMAP
00500000
00F80000
01FD0000
03CB4000
0B42D000
0E00F000
2D007800
38001F40
B0000B40
D0000100
00000000
00000000
00000000
A0002800
F0003C00
F0002D00
F0001D00
B0001D00
B0000E00
B0000E00
B0000E00
B0001F00
B4001F00
B4003F00
B401FF00
B40BD740
B9BE0740
7FE40740
7F400780
7C000380
78000380
74000380
740003C0
740002C0
780002C0
780002C0
34000180
ENDCHAR
STARTCHAR hcircumflex
ENCODING 293
SWIDTH 466 0
DWIDTH 17 0
BBX 17 35 1 -1
BITMAP
0000500000
0000F80000
0001FD0000
0003CB4000
000B42D000
000E00F000
002C007800
5038001F00
B0B0000B40
B0D0000100
B000000000
B000000000
B000000000
B000000000
B000000000
B000000000
B4001A4000
B401FFF000
B407F9B400
B41FE07800
B42F807800
B47E007800
B4BC007800
B4F8007800
B5F0007800
B6E0007800
B7C0007800
BF80007800
BF00007C00
BE00007C00
BC00003C00
B800003C00
B000003C00
5000003C00
0000001000
ENDCHAR
STARTCHAR Hbar
ENCODING 294
SWIDTH 424 0
DWIDTH 15 0
BBX 14 24 0 0
BITMAP
28000A00
3C000F00
3C000B40
3C000740
3C000740
2C000780
2D6AFFD0
7FFFEBD0
2D4003C0
2D0007C0
2D000FC0
2D007FC0
2D02F5D0
2E6F81D0
1FF901D0
1FD001E0
1F0000E0
1E0000E0
1D0000E0
1D0000F0
1D0000B0
1E0000B0
1E0000B0
0D000060
ENDCHAR
STARTCHAR hbar
ENCODING 295
SWIDTH 466 0
DWIDTH 17 0
BBX 18 28 -2 -1
BITMAP
0140000000
02C0000000
02C0000000
02C0000000
02C0000000
02C0000000
02C0000000
02C1564000
5BFFFF8000
FFEA95A900
02D007FFC0
02D01FE6D0
02D07F81E0
02D0BE01E0
02D1F801E0
02D2F001E0
02D3E001E0
02D7C001E0
02DB8001E0
02DF0001E0
02FE0001E0
02FC0001F0
02F80001F0
02F00000F0
02E00000F0
02C00000F0
01400000F0
0000000040
ENDCHAR
STARTCHAR Itilde
ENCODING 296
SWIDTH 153 0
DWIDTH 6 0
BBX 14 36 -4 0
BITMAP
06A40000
2FFD01E0
7C2E07E0
B40F4FC0
B007FF00
0001F800
00000000
00000000
00000000
00090000
000E0000
000F0000
000B0000
000B0000
000B0000
000B4000
000B4000
000B4000
000B4000
000B4000
000B4000
00074000
00074000
00074000
00074000
00074000
00074000
00074000
00074000
00074000
00074000
00074000
00074000
00074000
00074000
00024000
ENDCHAR
STARTCHAR itilde
ENCODING 297
SWIDTH 132 0
DWIDTH 5 0
BBX 14 30 -5 -1
BITMAP
00500000
0BFD00A0
2E6F01F0
3C0B47E0
7807EF80
1001FE00
00005400
00000000
00050000
000B4000
000B4000
000B4000
000B4000
000F4000
000F4000
000B4000
000B4000
000B4000
000B4000
000B4000
000B4000
000B4000
000B4000
000B4000
000B4000
000B4000
000B4000
000B4000
00074000
00010000
ENDCHAR
STARTCHAR imacron
ENCODING 299
SWIDTH 132 0
DWIDTH 5 0
BBX 13 28 -4 -1
BITMAP
00056A80
6AFFFFC0
BAA95500
00000000
00000000
00000000
00140000
002D0000
002D0000
002D0000
002D0000
003D0000
003D0000
002D0000
002D0000
002D0000
002D0000
002D0000
002D0000
002D0000
002D0000
002D0000
002D0000
002D0000
002D0000
002D0000
001D0000
00040000
ENDCHAR
STARTCHAR Ibreve
ENCODING 300
SWIDTH 153 0
DWIDTH 6 0
BBX 10 35 -2 0
BITMAP
000050
7402D0
2D07D0
0FBF40
07FD00
005000
000000
000000
009000
00E000
00F000
00B000
00B000
00B000
00B400
00B400
00B400
00B400
00B400
00B400
007400
007400
007400
007400
007400
007400
007400
007400
007400
007400
007400
007400
007400
007400
002400
ENDCHAR
STARTCHAR ibreve
ENCODING 301
SWIDTH 132 0
DWIDTH 5 0
BBX 10 30 -2 -1
BITMAP
000040
7002D0
7807C0
2FAF40
0BFD00
01A000
000000
000000
014000
02D000
02D000
02D000
02D000
03D000
03D000
02D000
02D000
02D000
02D000
02D000
02D000
02D000
02D000
02D000
02D000
02D000
02D000
02D000
01D000
004000
ENDCHAR
STARTCHAR Iogonek
ENCODING 302
SWIDTH 153 0
DWIDTH 6 0
BBX 9 34 0 -7
BITMAP
090000
0E0000
0F0000
0B0000
0B0000
0B0000
0B4000
0B4000
0B4000
0B4000
0B4000
0B4000
074000
074000
074000
074000
074000
074000
074000
074000
074000
074000
074000
074000
078000
0B8000
2F4000
3C0000
780000
B40000
B40000
781B80
3FFF40
0BF900
ENDCHAR
STARTCHAR iogonek
ENCODING 303
SWIDTH 132 0
DWIDTH 5 0
BBX 9 36 -1 -9
BITMAP
090000
1E0000
050000
000000
000000
000000
050000
0B4000
0B4000
0B4000
0B4000
0F4000
0F4000
0B4000
0B4000
0B4000
0B4000
0B4000
0B4000
0B4000
0B4000
0B4000
0B4000
0B4000
0B4000
0B4000
0B4000
2E0000
7C0000
B40000
F00000
F00000
B41B40
7EFF40
1FF900
014000
ENDCHAR
STARTCHAR Idotaccent
ENCODING 304
SWIDTH 153 0
DWIDTH 6 0
BBX 3 32 1 0
BITMAP
2C
7C
10
00
00
64
74
78
78
38
38
38
38
3C
3C
3C
3C
3C
3C
2C
2C
2C
2C
2C
2C
2C
2C
2C
2C
2C
2C
18
ENDCHAR
STARTCHAR dotlessi
ENCODING 305
SWIDTH 132 0
DWIDTH 5 0
BBX 3 22 1 -1
BITMAP
50
B4
B4
B4
B4
F4
F4
B4
B4
B4
B4
B4
B4
B4
B4
B4
B4
B4
B4
B4
74
10
ENDCHAR
STARTCHAR Jcircumflex
ENCODING 308
SWIDTH 371 0
DWIDTH 13 0
BBX 15 39 0 -3
BITMAP
00014000
0007D000
000BF400
001E3C00
002C0E00
00740780
00F002E0
01D000B8
0380003C
07400004
00006000
00007000
00007400
00007400
00007400
00007800
00007800
00003C00
00003C00
00002D00
00002D00
00002E00
00001E00
00001E00
00000E00
00000F00
00000F00
00000B00
00000B00
00000B00
00000B00
50000B40
60000B00
34000B00
2C000B00
0E000E00
03D06D00
00BFF400
00050000
ENDCHAR
STARTCHAR jcircumflex
ENCODING 309
SWIDTH 112 0
DWIDTH 4 0
BBX 15 46 -6 -12
BITMAP
00050000
000F4000
002FD000
0038B400
00B43C00
01E01F00
02C00780
074002E0
0B0000B4
1D000010
00000000
00000000
00000000
00000000
00000000
00014000
00038000
00038000
00038000
00038000
00038000
0003C000
0003C000
0003C000
0003C000
0002C000
0002C000
0002D000
0002D000
0002D000
0001D000
0001E000
0001E000
0001E000
0001E000
0000E000
0000E000
0000E000
0000E000
0001E000
0001D000
D002D000
B403C000
3D0B8000
0BAF0000
01BD0000
ENDCHAR
STARTCHAR Kcommaaccent
ENCODING 310
SWIDTH 524 0
DWIDTH 19 0
BBX 18 36 1 -12
BITMAP
F000000000
B400018000
B400078000
74001F0000
78003D0000
3800B80000
3801F00000
3C03D00000
2C0B800000
2C1F000000
2D2D000000
2D78000000
1EF0000000
1FD0000000
1FC0000000
1F80000000
0F40000000
0FFAAAAA90
0FFFFFFFD0
0B00000000
0B40000000
0740000000
0740000000
0240000000
0000000000
0000000000
0000000000
0001800000
0003D00000
0003E00000
0002E00000
0002D00000
0002C00000
0002C00000
0003800000
0001000000
ENDCHAR
STARTCHAR kcommaaccent
ENCODING 311
SWIDTH 428 0
DWIDTH 15 0
BBX 14 40 1 -12
BITMAP
14000000
38000000
3C000000
3C000000
7C000000
7C000000
7C000000
7C0001E0
7C0007D0
78000FC0
78002F40
78007E00
7800FD00
B802F800
B807F000
B40FD000
B42F4000
B47E0000
B5F80000
BBE00000
BF800000
BE000000
FF800000
FBF90000
F07FE400
F006FFD0
F0001FD0
E0000140
D0000000
40000000
00000000
00080000
002E0000
002E0000
002E0000
001E0000
002D0000
002D0000
002C0000
00140000
ENDCHAR
STARTCHAR Lacute
ENCODING 313
SWIDTH 537 0
DWIDTH 19 0
BBX 18 26 1 0
BITMAP
00001D0000
00007D0000
0000F80000
6002E00000
F401800000
F800000000
F800000000
B800000000
B800000000
B800000000
B800000000
B800000000
B800000000
B800000000
BC00000000
7C00000000
7C00000000
7C00000000
7C000002F0
7C00002FE0
7C0006F900
7C006F8000
7C07F90000
7DBF900000
7FF9000000
3E90000000
ENDCHAR
STARTCHAR lacute
ENCODING 314
SWIDTH 137 0
DWIDTH 5 0
BBX 5 40 0 0
BITMAP
0340
1F40
3E00
B800
6000
0000
0000
0000
0000
2400
3800
3800
2800
2C00
2C00
2C00
1C00
1D00
1D00
1D00
1D00
0D00
0D00
0E00
0E00
0E00
0E00
0E00
0E00
0E00
0E00
0E00
0E00
0E00
0F00
0F00
0F00
1F00
1F00
0100
ENDCHAR
STARTCHAR Lcommaaccent
ENCODING 315
SWIDTH 537 0
DWIDTH 19 0
BBX 18 35 1 -12
BITMAP
6000000000
F400000000
F800000000
F800000000
B800000000
B800000000
B800000000
B800000000
B800000000
B800000000
B800000000
BC00000000
7C00000000
7C00000000
7C00000000
7C000002F0
7C00002FE0
7C0006F900
7C006F8000
7C07F90000
7DBF900000
7FF9000000
3E90000000
0000000000
0000000000
0000000000
0000800000
0002E00000
0002E00000
0002E00000
0002E00000
0002D00000
0002C00000
0002C00000
0001400000
ENDCHAR
STARTCHAR lcommaaccent
ENCODING 316
SWIDTH 137 0
DWIDTH 5 0
BBX 3 43 1 -12
BITMAP
90
E0
E0
A0
B0
B0
B0
70
74
74
74
74
34
34
38
38
38
38
38
38
38
38
38
38
38
3C
3C
3C
7C
7C
04
00
00
00
60
F4
F8
B8
B4
B4
B0
A0
50
ENDCHAR
STARTCHAR Lcaron
ENCODING 317
SWIDTH 537 0
DWIDTH 19 0
BBX 18 33 1 0
BITMAP
2400000000
1D0007C000
0B001E0000
0380740000
01E2D00000
007F400000
0028000000
0000000000
0000000000
0000000000
6000000000
F400000000
F800000000
F800000000
B800000000
B800000000
B800000000
B800000000
B800000000
B800000000
B800000000
BC00000000
7C00000000
7C00000000
7C00000000
7C000002F0
7C00002FE0
7C0006F900
7C006F8000
7C07F90000
7DBF900000
7FF9000000
3E90000000
ENDCHAR
STARTCHAR Ldot
ENCODING 319
SWIDTH 537 0
DWIDTH 19 0
BBX 18 23 1 0
BITMAP
6000000000
F400000000
F800000000
F800000000
B800000000
B800000000
B800000000
B800000000
B800000000
B800000000
B800000000
BC00000000
7C00000000
7C01F00000
7C01E00000
7C000002F0
7C00002FE0
7C0006F900
7C006F8000
7C07F90000
7DBF900000
7FF9000000
3E90000000
ENDCHAR
STARTCHAR ldot
ENCODING 320
SWIDTH 267 0
DWIDTH 10 0
BBX 8 31 1 0
BITMAP
9000
E000
E000
A000
B000
B000
B000
7000
7400
7400
7400
7400
3400
3400
3800
3800
3800
3800
3800
3800
3804
383D
387C
3800
3800
3C00
3C00
3C00
7C00
7C00
0400
ENDCHAR
STARTCHAR Lslash
ENCODING 321
SWIDTH 537 0
DWIDTH 19 0
BBX 20 23 -1 0
BITMAP
0600000000
0F40000000
0F80000000
0F80000000
0B80000000
0B80000000
0B80000000
0B80000000
0B80000000
0B80000000
0B80010000
0BC06F8000
07CBFF8000
07FFE40000
BFE5000000
ABC000002F
07C00002FE
07C0006F90
07C006F800
07C07F9000
07DBF90000
07FF900000
03E9000000
ENDCHAR
STARTCHAR lslash
ENCODING 322
SWIDTH 137 0
DWIDTH 5 0
BBX 13 31 -4 0
BITMAP
00240000
00380000
00380000
00280000
002C0000
002C0000
002C0000
001C0000
001D0000
001D0000
001D0000
001D0000
000D0000
000D0000
000E0000
000E0000
000E0000
000E0000
000E0000
000E0680
000FBFC0
002FFE40
16FF5000
FF9E0000
540F0000
000F0000
000F0000
000F0000
001F0000
001F0000
00010000
ENDCHAR
STARTCHAR Nacute
ENCODING 323
SWIDTH 541 0
DWIDTH 19 0
BBX 17 30 1 0
BITMAP
0001D00000
0007D00000
001F801400
002E003C00
0018002D00
0000001E00
4000001E00
E000001E00
FC00000F00
BE00000F00
BF80000F00
BFD0000F00
7AF0000F00
78B8000B00
783E000B00
381F400B00
3C07C00B00
3C02E00B00
2C00B40B00
2D003D0B00
2D001F0B40
1D00078B40
1E0002DF40
1E0000BF40
0F00003F40
0F00001F80
0F00000BC0
0B00000BC0
0B00000100
0600000000
ENDCHAR
STARTCHAR nacute
ENCODING 324
SWIDTH 483 0
DWIDTH 17 0
BBX 15 27 1 0
BITMAP
0000A000
0002E000
000BD000
001F4000
00090000
00000000
50001E00
E000FFC0
F003FBD0
B00BD0E0
B40F40B0
B42F00B4
B43D0074
B83C0078
78780078
78B40078
7CB0007C
7CE0003C
7DD0003C
3ED0003C
3FC0003C
3F80003C
3F40003C
3F40002C
2F00002C
2F00002C
2D000000
ENDCHAR
STARTCHAR Ncommaaccent
ENCODING 325
SWIDTH 541 0
DWIDTH 19 0
BBX 17 40 1 -12
BITMAP
0000001400
0000003C00
0000002D00
0000001E00
4000001E00
E000001E00
FC00000F00
BE00000F00
BF80000F00
BFD0000F00
7AF0000F00
78B8000B00
783E000B00
381F400B00
3C07C00B00
3C02E00B00
2C00B40B00
2D003D0B00
2D001F0B40
1D00078B40
1E0002DF40
1E0000BF40
0F00003F40
0F00001F80
0F00000BC0
0B00000BC0
0B00000100
0600000000
0000000000
0000000000
0000000000
0000800000
0002E00000
0002E00000
0001E00000
0001E00000
0001D00000
0002D00000
0002C00000
0001400000
ENDCHAR
STARTCHAR ncommaaccent
ENCODING 326
SWIDTH 483 0
DWIDTH 17 0
BBX 15 33 1 -12
BITMAP
50001E00
E000FFC0
F003FBD0
B00BD0E0
B40F40B0
B42F00B4
B43D0074
B83C0078
78780078
78B40078
7CB0007C
7CE0003C
7DD0003C
3ED0003C
3FC0003C
3F80003C
3F40003C
3F40002C
2F00002C
2F00002C
2D000000
00000000
00000000
00000000
00020000
000B8000
000B8000
000B8000
000B8000
000B4000
000B0000
000B0000
00050000
ENDCHAR
STARTCHAR Ncaron
ENCODING 327
SWIDTH 541 0
DWIDTH 19 0
BBX 17 32 1 0
BITMAP
0600001000
038000B400
01D003D000
00B41E0000
002C781400
000FD03C00
0006402D00
0000001E00
4000001E00
E000001E00
FC00000F00
BE00000F00
BF80000F00
BFD0000F00
7AF0000F00
78B8000B00
783E000B00
381F400B00
3C07C00B00
3C02E00B00
2C00B40B00
2D003D0B00
2D001F0B40
1D00078B40
1E0002DF40
1E0000BF40
0F00003F40
0F00001F80
0F00000BC0
0B00000BC0
0B00000100
0600000000
ENDCHAR
STARTCHAR ncaron
ENCODING 328
SWIDTH 483 0
DWIDTH 17 0
BBX 15 29 1 0
BITMAP
09000040
0B0001E0
03800B40
01E02D00
0074B400
002F8000
000A0000
00000000
50001E00
E000FFC0
F003FBD0
B00BD0E0
B40F40B0
B42F00B4
B43D0074
B83C0078
78780078
78B40078
7CB0007C
7CE0003C
7DD0003C
3ED0003C
3FC0003C
3F80003C
3F40003C
3F40002C
2F00002C
2F00002C
2D000000
ENDCHAR
STARTCHAR napostrophe
ENCODING 329
SWIDTH 483 0
DWIDTH 17 0
BBX 15 32 1 0
BITMAP
00500000
02E00000
02F00000
01F00000
01E00000
01E00000
01D00000
01C00000
01400000
00000000
00000000
50001E00
E000FFC0
F003FBD0
B00BD0E0
B40F40B0
B42F00B4
B43D0074
B83C0078
78780078
78B40078
7CB0007C
7CE0003C
7DD0003C
3ED0003C
3FC0003C
3F80003C
3F40003C
3F40002C
2F00002C
2F00002C
2D000000
ENDCHAR
STARTCHAR Omacron
ENCODING 332
SWIDTH 382 0
DWIDTH 14 0
BBX 15 29 0 0
BITMAP
000056A8
06AFFFFC
0BEA9550
00000000
00004000
000BF400
003FFD00
00BD1F40
01E00B80
03C007C0
078003C0
0B4002C0
0F0002D0
1E0002D0
2E0002D0
2D0002D0
3C0003C0
380003C0
780007C0
74000780
74000B40
74000F00
74001E00
78003D00
38007C00
2D01F400
1F9BD000
0BFF4000
02F80000
ENDCHAR
STARTCHAR omacron
ENCODING 333
SWIDTH 266 0
DWIDTH 10 0
BBX 14 27 -2 0
BITMAP
00016A80
6AFFFFD0
7EA95500
00000000
00000000
00000000
00000000
002A0000
00BF8000
00FFD000
00E07000
01D03400
02C03800
02C02C00
03802C00
03802C00
07803C00
07803C00
07803C00
07807800
07807800
0780B400
0380F000
0382D000
03DBC000
02FF0000
01F80000
ENDCHAR
STARTCHAR Obreve
ENCODING 334
SWIDTH 382 0
DWIDTH 14 0
BBX 14 31 0 0
BITMAP
00000500
07402D00
03D0BC00
00FBF400
007FD000
00050000
00004000
000BF400
003FFD00
00BD1F40
01E00B80
03C007C0
078003C0
0B4002C0
0F0002D0
1E0002D0
2E0002D0
2D0002D0
3C0003C0
380003C0
780007C0
74000780
74000B40
74000F00
74001E00
78003D00
38007C00
2D01F400
1F9BD000
0BFF4000
02F80000
ENDCHAR
STARTCHAR obreve
ENCODING 335
SWIDTH 266 0
DWIDTH 10 0
BBX 10 27 0 0
BITMAP
000050
3801E0
2E07D0
0BEF80
02FE00
005400
000000
02A000
0BF800
0FFD00
0E0700
1D0340
2C0380
2C02C0
3802C0
3802C0
7803C0
7803C0
7803C0
780780
780780
780B40
380F00
382D00
3DBC00
2FF000
1F8000
ENDCHAR
STARTCHAR Ohungarumlaut
ENCODING 336
SWIDTH 382 0
DWIDTH 14 0
BBX 14 31 0 0
BITMAP
00007810
0001F4B0
0003E3E0
000B8BC0
00060F00
00000400
00004000
000BF400
003FFD00
00BD1F40
01E00B80
03C007C0
078003C0
0B4002C0
0F0002D0
1E0002D0
2E0002D0
2D0002D0
3C0003C0
380003C0
780007C0
74000780
74000B40
74000F00
74001E00
78003D00
38007C00
2D01F400
1F9BD000
0BFF4000
02F80000
ENDCHAR
STARTCHAR ohungarumlaut
ENCODING 337
SWIDTH 266 0
DWIDTH 10 0
BBX 10 27 0 0
BITMAP
00E040
03E2D0
0BCBC0
1F2F40
183D00
001000
000000
02A000
0BF800
0FFD00
0E0700
1D0340
2C0380
2C02C0
3802C0
3802C0
7803C0
7803C0
7803C0
780780
780780
780B40
380F00
382D00
3DBC00
2FF000
1F8000
ENDCHAR
STARTCHAR OE
ENCODING 338
SWIDTH 732 0
DWIDTH 26 0
BBX 26 26 0 0
BITMAP
00000000001900
0000478006F800
000BFBC1BF8000
003FFFDBF80000
00BD1FFF800000
01E00BF8000000
03C007D0000000
078003C0000000
0B4002D0000000
0F0002D0001400
1E0002D000B400
2E0002D007D000
2D0002D06E4000
3C0003E2F40000
380003FF400000
780007F8000000
740007F0000000
74000BF0000050
74000FF00007E0
74001FF0002F40
78003DF001F800
38007DF00BD000
2D01F4F07E0000
1F9BD0FAF40000
0BFF40FF800000
02F800F8000000
ENDCHAR
STARTCHAR oe
ENCODING 339
SWIDTH 628 0
DWIDTH 23 0
BBX 23 20 0 0
BITMAP
02A000054000
0BF8007FE400
0FFD01FABC00
0E0703E02E00
1D034B803E00
2C038F41F800
2C02AE0BD000
3802FEBE0000
3802FFE40000
7803FF400000
7803FC000024
7803F80000B4
7807F80002F0
7807B80007D0
780B78000F80
380F38003E00
382E3801F800
3DBC2D5BD000
2FF00FFE0000
1F8001900000
ENDCHAR
STARTCHAR Racute
ENCODING 340
SWIDTH 503 0
DWIDTH 18 0
BBX 17 34 1 0
BITMAP
00000D0000
00003E0000
0000FC0000
0001F00000
0001800000
5400000000
B800694000
B81BFFF800
B8BF95BF00
BFE0001F40
BE00001F00
B800003D00
B80001F400
B800078000
B4006E0000
B402E40000
B42F400000
B5F8000000
BFD0000000
BE00000000
BD00000000
BF80000000
BFF8000000
B1BF800000
B01BF80000
B001BF8000
B0001BF800
B00001BF80
B000000B80
B000000000
B000000000
B000000000
B000000000
6000000000
ENDCHAR
STARTCHAR racute
ENCODING 341
SWIDTH 396 0
DWIDTH 14 0
BBX 13 26 1 0
BITMAP
0002C000
000BC000
002F4000
003D0000
00240000
00000000
00000000
00001400
A007FF40
F01FFA00
F07E0000
B0B80000
B4F40000
74F00000
75E00000
39E00000
39D00000
2ED00000
2ED00000
1ED00000
1FD00000
0FC00000
0FC00000
0FC00000
0B800000
06800000
ENDCHAR
STARTCHAR Rcommaaccent
ENCODING 342
SWIDTH 503 0
DWIDTH 18 0
BBX 17 41 1 -12
BITMAP
5400000000
B800694000
B81BFFF800
B8BF95BF00
BFE0001F40
BE00001F00
B800003D00
B80001F400
B800078000
B4006E0000
B402E40000
B42F400000
B5F8000000
BFD0000000
BE00000000
BD00000000
BF80000000
BFF8000000
B1BF800000
B01BF80000
B001BF8000
B0001BF800
B00001BF80
B000000B80
B000000000
B000000000
B000000000
B000000000
6000000000
0000000000
0000000000
0000000000
0001400000
0007C00000
0007D00000
0003C00000
0003C00000
0003800000
0003800000
0007400000
0001000000
ENDCHAR
STARTCHAR rcommaaccent
ENCODING 343
SWIDTH 396 0
DWIDTH 14 0
BBX 13 31 1 -12
BITMAP
00001400
A007FF40
F01FFA00
F07E0000
B0B80000
B4F40000
74F00000
75E00000
39E00000
39D00000
2ED00000
2ED00000
1ED00000
1FD00000
0FC00000
0FC00000
0FC00000
0B800000
06800000
00000000
00000000
00000000
00140000
007C0000
007D0000
003D0000
003C0000
003C0000
00380000
00340000
00100000
ENDCHAR
STARTCHAR Rcaron
ENCODING 344
SWIDTH 503 0
DWIDTH 18 0
BBX 17 37 1 0
BITMAP
0240001000
02C0007800
00E002D000
00780B4000
001D2D0000
000BE00000
0002800000
0000000000
5400000000
B800694000
B81BFFF800
B8BF95BF00
BFE0001F40
BE00001F00
B800003D00
B80001F400
B800078000
B4006E0000
B402E40000
B42F400000
B5F8000000
BFD0000000
BE00000000
BD00000000
BF80000000
BFF8000000
B1BF800000
B01BF80000
B001BF8000
B0001BF800
B00001BF80
B000000B80
B000000000
B000000000
B000000000
B000000000
6000000000
ENDCHAR
STARTCHAR rcaron
ENCODING 345
SWIDTH 396 0
DWIDTH 14 0
BBX 13 29 1 0
BITMAP
A0000100
74000F00
1D007800
0B01E000
03878000
01FD0000
00640000
00000000
00000000
00000000
00001400
A007FF40
F01FFA00
F07E0000
B0B80000
B4F40000
74F00000
75E00000
39E00000
39D00000
2ED00000
2ED00000
1ED00000
1FD00000
0FC00000
0FC00000
0FC00000
0B800000
06800000
ENDCHAR
STARTCHAR Sacute
ENCODING 346
SWIDTH 541 0
DWIDTH 19 0
BBX 19 32 0 0
BITMAP
0000074000
00001F4000
00007E0000
0000B80000
0000A00000
0000000000
00001BF800
0001FBF800
000B80A000
007D000000
01F4000000
03D0000000
0B40000000
1E00000000
3C00000000
7800000000
B400000000
B400000000
7800000000
2D00000000
0B94000000
01BFEA5400
0005AFFF90
00000016F4
00000000B8
00000001F4
0000001BD0
000001BE00
00006FE400
001BFD0000
00BE500000
0010000000
ENDCHAR
STARTCHAR sacute
ENCODING 347
SWIDTH 366 0
DWIDTH 13 0
BBX 12 27 1 -1
BITMAP
000740
001F40
003E00
00B800
006000
000000
000000
000000
002FE0
02FAE0
0B8000
2E0000
7C0000
B40000
F00000
E00000
E006F4
FABFFD
BFE56E
19001E
00002D
0000B8
0007E0
001F80
00BE00
07F800
029000
ENDCHAR
STARTCHAR Scircumflex
ENCODING 348
SWIDTH 541 0
DWIDTH 19 0
BBX 19 37 0 0
BITMAP
0000140000
00007C0000
0000FE0000
0002D78000
000381E000
000B40B400
001E002D00
002C000F40
0074000780
00B0000100
0000000000
00001BF800
0001FBF800
000B80A000
007D000000
01F4000000
03D0000000
0B40000000
1E00000000
3C00000000
7800000000
B400000000
B400000000
7800000000
2D00000000
0B94000000
01BFEA5400
0005AFFF90
00000016F4
00000000B8
00000001F4
0000001BD0
000001BE00
00006FE400
001BFD0000
00BE500000
0010000000
ENDCHAR
STARTCHAR scircumflex
ENCODING 349
SWIDTH 366 0
DWIDTH 13 0
BBX 13 30 1 -1
BITMAP
00500000
00F80000
01FD0000
038B4000
0B42D000
0E00F000
2C007800
38001F00
B0000B40
D0000100
00000000
002FE000
02FAE000
0B800000
2E000000
7C000000
B4000000
F0000000
E0000000
E006F400
FABFFD00
BFE56E00
19001E00
00002D00
0000B800
0007E000
001F8000
00BE0000
07F80000
02900000
ENDCHAR
STARTCHAR Scedilla
ENCODING 350
SWIDTH 541 0
DWIDTH 19 0
BBX 20 36 0 -10
BITMAP
00001BF800
0001FBF800
000B80A000
007D000000
01F4000000
03D0000000
0B40000000
1E00000000
3C00000000
7800000000
B400000000
B400000000
7800000000
2D00000000
0B94000000
01BFEA5400
0005AFFF90
00000016F4
00000000B8
00000001F4
0000001BD0
000001BE00
00006FE400
001BFD8000
00BE50D000
001001D000
000001D000
000001F400
000001FE40
000000BFE0
00000006FC
000000007D
000000003E
00000006FE
000001FFF8
000000AA40
ENDCHAR
STARTCHAR scedilla
ENCODING 351
SWIDTH 366 0
DWIDTH 13 0
BBX 13 30 1 -12
BITMAP
002FE000
02FAE000
0B800000
2E000000
7C000000
B4000000
F0000000
E0000000
E006F400
FABFFD00
BFE56E00
19001E00
00002D00
0000B800
0007E000
001F8000
00BE0000
07F80000
02F00000
00F00000
00F40000
00BE0000
007FE000
001BFD00
00007F00
00001F40
00007F40
006BFE00
00BFE400
00100000
ENDCHAR
STARTCHAR Scaron
ENCODING 352
SWIDTH 541 0
DWIDTH 19 0
BBX 19 33 0 0
BITMAP
0090000400
00B0001E00
003800B400
001E02D000
00074B4000
0002F80000
0000A00000
00001BF800
0001FBF800
000B80A000
007D000000
01F4000000
03D0000000
0B40000000
1E00000000
3C00000000
7800000000
B400000000
B400000000
7800000000
2D00000000
0B94000000
01BFEA5400
0005AFFF90
00000016F4
00000000B8
00000001F4
0000001BD0
000001BE00
00006FE400
001BFD0000
00BE500000
0010000000
ENDCHAR
STARTCHAR scaron
ENCODING 353
SWIDTH 366 0
DWIDTH 13 0
BBX 13 28 0 -1
BITMAP
60000100
2C000B80
0E002D00
0780B400
02D2C000
00BE0000
00280000
00000000
00000000
000BF800
00BEB800
02E00000
0B800000
1F000000
2D000000
3C000000
38000000
3801BD00
3EAFFF40
2FF95B80
06400780
00000B40
00002E00
0001F800
0007E000
002F8000
01FE0000
00A40000
ENDCHAR
STARTCHAR Tcommaaccent
ENCODING 354
SWIDTH 595 0
DWIDTH 21 0
BBX 25 38 0 -12
BITMAP
00000140000540
000003D5ABFF80
0005AFFFFFA400
2AFFFFE5400000
BFE902D0000000
140002D0000000
000001D0000000
000001E0000000
000001E0000000
000000E0000000
000000F0000000
000000F0000000
000000B0000000
000000B4000000
000000B4000000
000000B4000000
00000078000000
00000078000000
0000007C000000
0000003C000000
0000003C000000
0000003D000000
0000002D000000
0000002D000000
0000001D000000
0000000D000000
00000000000000
00000000000000
00000000000000
00000002000000
0000000B800000
0000000F800000
0000000B800000
0000000B800000
0000000B400000
0000000B000000
0000000B000000
00000005000000
ENDCHAR
STARTCHAR tcommaaccent
ENCODING 355
SWIDTH 268 0
DWIDTH 10 0
BBX 12 40 -2 -12
BITMAP
005000
00B400
00B400
00B400
00B000
00B000
00B000
00B000
00B06E
00FFFE
02FFE0
2FF900
7FF000
39F000
00F000
00F000
00F000
00F000
00B400
00B400
00B400
00B400
00B400
00B400
007400
007400
007800
007800
002400
000000
000000
000500
001F00
002F00
001F00
001F00
001E00
001D00
001C00
001400
ENDCHAR
STARTCHAR Tcaron
ENCODING 356
SWIDTH 595 0
DWIDTH 21 0
BBX 25 36 0 0
BITMAP
00009000040000
0000B0001E0000
00002800780000
00000E02D00000
0000074B400000
000002FC000000
000000A0000000
00000000000000
00000000000000
00000000000000
00000140000540
000003D5ABFF80
0005AFFFFFA400
2AFFFFE5400000
BFE902D0000000
140002D0000000
000001D0000000
000001E0000000
000001E0000000
000000E0000000
000000F0000000
000000F0000000
000000B0000000
000000B4000000
000000B4000000
000000B4000000
00000078000000
00000078000000
0000007C000000
0000003C000000
0000003C000000
0000003D000000
0000002D000000
0000002D000000
0000001D000000
0000000D000000
ENDCHAR
STARTCHAR Tbar
ENCODING 358
SWIDTH 595 0
DWIDTH 21 0
BBX 25 26 0 0
BITMAP
00000140000540
000003D5ABFF80
0005AFFFFFA400
2AFFFFE5400000
BFE902D0000000
140002D0000000
000001D0000000
000001E0000000
000001EAF80000
000AFFFFF80000
000AA9F4000000
000000F0000000
000000B0000000
000000B4000000
000000B4000000
000000B4000000
00000078000000
00000078000000
0000007C000000
0000003C000000
0000003C000000
0000003D000000
0000002D000000
0000002D000000
0000001D000000
0000000D000000
ENDCHAR
STARTCHAR Utilde
ENCODING 360
SWIDTH 450 0
DWIDTH 16 0
BBX 15 35 1 -4
BITMAP
01A40000
0FFF00F4
2E0F42F4
3C0787E0
3402FF80
0000BD00
00000000
00000000
00000040
500000E0
F40001F0
F40001F0
F40002F0
B40002F0
B40003F0
B40003F0
B40007E0
B40007E0
B4000BE0
B4000BE0
B4000FE0
B4000FE0
B4001EE0
B4002DE0
740038E0
740074B0
7800F0B0
3C02D0B0
2E5B80B0
0FFE0074
01900074
00000074
00000034
00000034
00000034
ENDCHAR
STARTCHAR utilde
ENCODING 361
SWIDTH 387 0
DWIDTH 14 0
BBX 14 27 0 -1
BITMAP
06A40000
2FFD02D0
B82E07D0
F41F5F80
A00BFE00
0002F800
00000000
00000000
14000400
2C001E00
2C001E00
2C001E00
2C001E00
2C001E00
2D001E00
2D002E00
2D002E00
2D002E00
2D003E00
1D00BE00
1E00FE00
1E02FE00
0F07EF00
0B1F8B00
07FE0B40
02F80780
00500240
ENDCHAR
STARTCHAR Umacron
ENCODING 362
SWIDTH 450 0
DWIDTH 16 0
BBX 15 31 1 -4
BITMAP
00016A90
2AFFFFE0
7EAA5500
00000000
00000040
500000E0
F40001F0
F40001F0
F40002F0
B40002F0
B40003F0
B40003F0
B40007E0
B40007E0
B4000BE0
B4000BE0
B4000FE0
B4000FE0
B4001EE0
B4002DE0
740038E0
740074B0
7800F0B0
3C02D0B0
2E5B80B0
0FFE0074
01900074
00000074
00000034
00000034
00000034
ENDCHAR
STARTCHAR umacron
ENCODING 363
SWIDTH 387 0
DWIDTH 14 0
BBX 14 28 0 -1
BITMAP
00016A90
2AFFFFD0
7EAA5500
00000000
00000000
00000000
00000000
00000000
00000000
14000400
2C001E00
2C001E00
2C001E00
2C001E00
2C001E00
2D001E00
2D002E00
2D002E00
2D002E00
2D003E00
1D00BE00
1E00FE00
1E02FE00
0F07EF00
0B1F8B00
07FE0B40
02F80780
00500240
ENDCHAR
STARTCHAR Ubreve
ENCODING 364
SWIDTH 450 0
DWIDTH 16 0
BBX 15 31 1 -4
BITMAP
00000500
02801F00
01E07E00
00BEF800
002FE040
500540E0
F40001F0
F40001F0
F40002F0
B40002F0
B40003F0
B40003F0
B40007E0
B40007E0
B4000BE0
B4000BE0
B4000FE0
B4000FE0
B4001EE0
B4002DE0
740038E0
740074B0
7800F0B0
3C02D0B0
2E5B80B0
0FFE0074
01900074
00000074
00000034
00000034
00000034
ENDCHAR
STARTCHAR ubreve
ENCODING 365
SWIDTH 387 0
DWIDTH 14 0
BBX 12 28 1 -1
BITMAP
000014
0E0078
0B81F4
02FBE0
00BF80
001500
000000
000000
000000
500010
B00078
B00078
B00078
B00078
B00078
B40078
B400B8
B400B8
B400B8
B400F8
7402F8
7803F8
780BF8
3C1FBC
2C7E2C
1FF82D
0BE01E
014009
ENDCHAR
STARTCHAR Uring
ENCODING 366
SWIDTH 450 0
DWIDTH 16 0
BBX 15 34 1 -4
BITMAP
00050000
00BFE000
03E5B800
07803C00
07803C00
03E5F800
00AA9000
00000040
500000E0
F40001F0
F40001F0
F40002F0
B40002F0
B40003F0
B40003F0
B40007E0
B40007E0
B4000BE0
B4000BE0
B4000FE0
B4000FE0
B4001EE0
B4002DE0
740038E0
740074B0
7800F0B0
3C02D0B0
2E5B80B0
0FFE0074
01900074
00000074
00000034
00000034
00000034
ENDCHAR
STARTCHAR uring
ENCODING 367
SWIDTH 387 0
DWIDTH 14 0
BBX 12 26 1 -1
BITMAP
001500
02FFD0
0B96F0
1F00B0
0F00F0
0B96E0
02AA40
500010
B00078
B00078
B00078
B00078
B00078
B40078
B400B8
B400B8
B400B8
B400F8
7402F8
7803F8
780BF8
3C1FBC
2C7E2C
1FF82D
0BE01E
014009
ENDCHAR
STARTCHAR Uhungarumlaut
ENCODING 368
SWIDTH 450 0
DWIDTH 16 0
BBX 15 34 1 -4
BITMAP
000E0400
003E2C00
00F8BC00
01E2F000
0183D000
00010000
00000000
00000040
500000E0
F40001F0
F40001F0
F40002F0
B40002F0
B40003F0
B40003F0
B40007E0
B40007E0
B4000BE0
B4000BE0
B4000FE0
B4000FE0
B4001EE0
B4002DE0
740038E0
740074B0
7800F0B0
3C02D0B0
2E5B80B0
0FFE0074
01900074
00000074
00000034
00000034
00000034
ENDCHAR
STARTCHAR uhungarumlaut
ENCODING 369
SWIDTH 387 0
DWIDTH 14 0
BBX 12 25 1 -1
BITMAP
00A040
02E2D0
0BCBC0
1F1F40
083D00
001400
500010
B00078
B00078
B00078
B00078
B00078
B40078
B400B8
B400B8
B400B8
B400F8
7402F8
7803F8
780BF8
3C1FBC
2C7E2C
1FF82D
0BE01E
014009
ENDCHAR
STARTCHAR Uogonek
ENCODING 370
SWIDTH 450 0
DWIDTH 16 0
BBX 18 33 1 -10
BITMAP
0000004000
500000E000
F40001F000
F40001F000
F40002F000
B40002F000
B40003F000
B40003F000
B40007E000
B40007E000
B4000BE000
B4000BE000
B4000FE000
B4000FE000
B4001EE000
B4002DE000
740038E000
740074B000
7800F0B000
3C02D0B000
2E5B80B000
0FFE007400
0190007400
000000B400
000002F400
00000BB400
00000F3400
00001E0000
00002D0000
00002D0040
00001E5BE0
00000BFFD0
000002BA00
ENDCHAR
STARTCHAR uogonek
ENCODING 371
SWIDTH 387 0
DWIDTH 14 0
BBX 15 27 1 -9
BITMAP
50001000
B0007800
B0007800
B0007800
B0007800
B0007800
B4007800
B400B800
B400B800
B400B800
B400F800
7402F800
7803F800
780BF800
3C1FBC00
2C7E2C00
1FF82D00
0BE07E00
0141F900
0003D000
00078000
000B4000
000B4000
00074064
0003EBF8
0001FFE0
00001500
ENDCHAR
STARTCHAR Wcircumflex
ENCODING 372
SWIDTH 878 0
DWIDTH 32 0
BBX 31 39 0 -1
BITMAP
0000000500000000
0000001F40000000
0000002FD0000000
00000078F0000000
000000B078000000
000001D01E000000
000003C00B800000
0000074002E00000
00000E0000F00000
00001C0000000000
0000000000000000
0000000000000060
00000000000000B4
00000000000000F0
00000000000000E0
00000000800001E0
2C000002E00002D0
7D000003F40003C0
2E000003F8000380
1F000007BC000780
0B40000B7C000B40
0780000E3D000F00
03C0001D2E000E00
02D0002C1F001E00
02E000380F402D00
01F0007407802C00
00F400B003C03800
00B800E002D07800
00BC01D001E0B400
007D02D000B0B000
003D03C00078E000
002E0780002DE000
002F0B40001FD000
001F4F00000BD000
000F9E000007C000
000BEE0000024000
0003FD0000000000
0002F80000000000
0000500000000000
ENDCHAR
STARTCHAR wcircumflex
ENCODING 373
SWIDTH 566 0
DWIDTH 20 0
BBX 18 34 1 0
BITMAP
0000400000
0002E00000
0007F40000
000F2D0000
001D0B4000
003803C000
00B401F000
00E0007D00
02C0002D00
0380000400
0000000000
0000000000
0000000000
0000000000
0000000000
0001400040
A003D001D0
F003F001E0
B407F801E0
7C07BC01E0
2D079E01E0
1E0B8B41E0
0F0B43C1E0
0B4B42D1E0
078F40F1E0
03DF4079F0
02EF402DF0
01FF001FF0
00BF000BF0
007F0003F0
003F0001F0
002F0000B0
001E000000
000A000000
ENDCHAR
STARTCHAR Ycircumflex
ENCODING 374
SWIDTH 483 0
DWIDTH 17 0
BBX 17 39 0 0
BITMAP
0001400000
0007D00000
000BF40000
001E3C0000
002C1E0000
0074078000
00F002E000
01D000B800
0380003C00
0700000000
0000000000
0000000240
0000000380
0000000740
0000000B00
0000000E00
6000001D00
7800002D00
2D00003C00
1F40007800
0BC000B400
02E000F000
00F801E000
007D02D000
001F43C000
0007D78000
0002FF4000
0000BF0000
00003E0000
00003D0000
00007C0000
0000780000
0000B40000
0000F00000
0001E00000
0002D00000
0003C00000
0007800000
0003400000
ENDCHAR
STARTCHAR ycircumflex
ENCODING 375
SWIDTH 363 0
DWIDTH 13 0
BBX 13 48 0 -14
BITMAP
00140000
007C0000
00FF0000
02D78000
0381E000
0B40B400
0E002D00
2C000F80
74000780
B0000100
00000000
00000000
00000000
00000000
00000000
00000200
00000740
10000740
3C000740
3E000740
1F000B40
0B800B40
07D00B40
02E00B40
00F40B40
007C0B40
002E0F00
000F4F00
0007DF00
0002FF00
0001FF00
0000BF00
00003F00
00001E00
00000E00
00001E00
00001E00
00001E00
00001D00
00001D00
00002D00
00002D00
00002C00
00002C00
00003C00
00003C00
00003800
00001400
ENDCHAR
STARTCHAR Ydieresis
ENCODING 376
SWIDTH 483 0
DWIDTH 17 0
BBX 17 28 0 0
BITMAP
0000000240
001A0A4380
002E1F4740
0014050B00
0000000E00
6000001D00
7800002D00
2D00003C00
1F40007800
0BC000B400
02E000F000
00F801E000
007D02D000
001F43C000
0007D78000
0002FF4000
0000BF0000
00003E0000
00003D0000
00007C0000
0000780000
0000B40000
0000F00000
0001E00000
0002D00000
0003C00000
0007800000
0003400000
ENDCHAR
STARTCHAR Zacute
ENCODING 377
SWIDTH 670 0
DWIDTH 24 0
BBX 23 33 1 0
BITMAP
000003400000
00000F400000
00003E000000
0000B8000000
000060000000
000000000000
000000000000
000000000000
6AAAAA555400
BFFFFFFFFC00
00000056F800
00000003F000
0000000BD000
0000002F4000
0000007E0000
000000F80000
000002F00000
00000BD00000
00001F400000
00007E000000
0000F8000000
0002F0000000
000BD0000000
001F40000000
003E00000000
00B800000000
02F000000000
07D000000000
1F4000000000
3E0000000000
BEAAAAAAABF4
FFFFFFFFFFF4
BFAAAAA95540
ENDCHAR
STARTCHAR zacute
ENCODING 378
SWIDTH 618 0
DWIDTH 22 0
BBX 22 27 1 -1
BITMAP
000002800000
00000BC00000
00002F400000
00007D000000
000024000000
000000000000
000000000000
000000000000
00001BC00000
0001FFD00000
006FEBC00000
6BF90B800000
BF901F400000
10002F000000
00003D000000
0000B8000000
0000F4000000
0002E0000000
0003C0000000
000740000000
000F00000000
001E00001AD0
002D006BFFF0
003E6FFFFA50
007FFFE94000
007F94000000
001000000000
ENDCHAR
STARTCHAR Zdotaccent
ENCODING 379
SWIDTH 670 0
DWIDTH 24 0
BBX 23 29 1 0
BITMAP
00000B400000
00001F000000
000005000000
000000000000
6AAAAA555400
BFFFFFFFFC00
00000056F800
00000003F000
0000000BD000
0000002F4000
0000007E0000
000000F80000
000002F00000
00000BD00000
00001F400000
00007E000000
0000F8000000
0002F0000000
000BD0000000
001F40000000
003E00000000
00B800000000
02F000000000
07D000000000
1F4000000000
3E0000000000
BEAAAAAAABF4
FFFFFFFFFFF4
BFAAAAA95540
ENDCHAR
STARTCHAR zdotaccent
ENCODING 380
SWIDTH 618 0
DWIDTH 22 0
BBX 22 23 1 -1
BITMAP
00002D000000
00003D000000
000014000000
000000000000
00001BC00000
0001FFD00000
006FEBC00000
6BF90B800000
BF901F400000
10002F000000
00003D000000
0000B8000000
0000F4000000
0002E0000000
0003C0000000
000740000000
000F00000000
001E00001AD0
002D006BFFF0
003E6FFFFA50
007FFFE94000
007F94000000
001000000000
ENDCHAR
STARTCHAR Zcaron
ENCODING 381
SWIDTH 670 0
DWIDTH 24 0
BBX 23 34 1 0
BITMAP
000900004000
000B0001E000
0002800B8000
0000E02D0000
000074B40000
00002F800000
00000A000000
000000000000
000000000000
6AAAAA555400
BFFFFFFFFC00
00000056F800
00000003F000
0000000BD000
0000002F4000
0000007E0000
000000F80000
000002F00000
00000BD00000
00001F400000
00007E000000
0000F8000000
0002F0000000
000BD0000000
001F40000000
003E00000000
00B800000000
02F000000000
07D000000000
1F4000000000
3E0000000000
BEAAAAAAABF4
FFFFFFFFFFF4
BFAAAAA95540
ENDCHAR
STARTCHAR zcaron
ENCODING 382
SWIDTH 618 0
DWIDTH 22 0
BBX 22 27 1 -1
BITMAP
028000040000
01D0003C0000
007401E00000
002C07800000
000E1E000000
0007F4000000
000190000000
000000000000
00001BC00000
0001FFD00000
006FEBC00000
6BF90B800000
BF901F400000
10002F000000
00003D000000
0000B8000000
0000F4000000
0002E0000000
0003C0000000
000740000000
000F00000000
001E00001AD0
002D006BFFF0
003E6FFFFA50
007FFFE94000
007F94000000
001000000000
ENDCHAR
STARTCHAR florin
ENCODING 402
SWIDTH 345 0
DWIDTH 12 0
BBX 14 42 -1 -10
BITMAP
000BD000
001FF400
002FB800
003E2C00
003D0D00
007C0400
007C0000
007C0000
00780000
00B80000
00B80000
00B80000
00B40000
00B40180
00B41FD0
00B6FF80
00BFE400
02F90000
0BF40000
0A740000
00740000
00780000
00380000
00380000
00380000
00380000
003C0000
003C0000
003C0000
003C0000
003D0000
003D0000
003D0000
003D0000
003D0000
003D0000
003D0000
003D0000
003D0000
BFFC0000
2FF40000
00400000
ENDCHAR
STARTCHAR AEacute
ENCODING 508
SWIDTH 708 0
DWIDTH 26 0
BBX 24 33 1 1
BITMAP
00000A000000
00002E000000
0000BC000000
0001F4000000
000180000000
000000000000
000000000000
074000000050
0BC024001BD0
0BD07C02FE00
0BE03D6FE000
0FF42FFE0000
0F782FE00000
0F2C2E000000
1E1D1D000000
1E0E1D000000
1E0B1E000000
2D074E000280
2D038E001E00
2D02CE01F400
3D02DE1F8000
3C01FFF80000
3C00FFD00000
3C02FF400000
7C1FFF400000
7FF9BF40001F
7F403F4000BD
B8002F4007E0
B4001F402F40
B0000F41F800
B0000F9BD000
F0000FFE0000
E0000FE40000
ENDCHAR
STARTCHAR aeacute
ENCODING 509
SWIDTH 705 0
DWIDTH 25 0
BBX 25 26 0 0
BITMAP
0000001D000000
0000007D000000
000000F8000000
000002E0000000
00000180000000
00000000000000
00005002FE0000
0007FC1FFFC000
001FFD2F02E000
007E3C7D02E000
00F83CF40BD000
01F03DF06E4000
03D07EE6F40000
07C0BFFF800000
0F40FFF9000000
1F02FFD0000140
2D03FFC0000B80
3C0B9F80001F40
781F0F80003E00
B42E0B8000BC00
F07C0B8002F000
E1F40B800B8000
F7E007D06E0000
BFC007FFF40000
7F00076E400000
14000100000000
ENDCHAR
STARTCHAR Oslashacute
ENCODING 510
SWIDTH 382 0
DWIDTH 14 0
BBX 14 35 0 -3
BITMAP
00003400
0001F400
0003E000
000B8000
00060000
00000000
00000000
00004E00
000BFD00
003FFD00
00BD3F00
01E07F80
03C0B7C0
0780E3C0
0B41D2C0
0F02C2D0
1E0282D0
2E0382D0
2D0742D0
3C0B03C0
380E03C0
781D07C0
742C0780
74380B40
74740F00
74B01E00
78E03D00
39D07C00
2EC1F400
1FDBD000
0BFF4000
07F80000
0B000000
0E000000
09000000
ENDCHAR
STARTCHAR oslashacute
ENCODING 511
SWIDTH 266 0
DWIDTH 10 0
BBX 10 30 0 -3
BITMAP
000D00
003E00
00FC00
01F000
018000
000000
0000D0
02A1D0
0BFBC0
0FFF40
0E0B00
1D0F40
2C1F80
2C2FC0
383AC0
3876C0
78B3C0
78E3C0
79D3C0
7AC780
7B4780
7F0B40
3E0F00
3D2D00
3DBC00
3FF000
7F8000
B00000
E00000
900000
ENDCHAR
STARTCHAR Scommaaccent
ENCODING 536
SWIDTH 541 0
DWIDTH 19 0
BBX 19 38 0 -12
BITMAP
00001BF800
0001FBF800
000B80A000
007D000000
01F4000000
03D0000000
0B40000000
1E00000000
3C00000000
7800000000
B400000000
B400000000
7800000000
2D00000000
0B94000000
01BFEA5400
0005AFFF90
00000016F4
00000000B8
00000001F4
0000001BD0
000001BE00
00006FE400
001BFD0000
00BE500000
0010000000
0000000000
0000000000
0000000000
0000200000
0000B80000
0000B80000
0000780000
0000780000
0000740000
0000B40000
0000B00000
0000500000
ENDCHAR
STARTCHAR scommaaccent
ENCODING 537
SWIDTH 366 0
DWIDTH 13 0
BBX 12 30 1 -12
BITMAP
002FE0
02FAE0
0B8000
2E0000
7C0000
B40000
F00000
E00000
E006F4
FABFFD
BFE56E
19001E
00002D
0000B8
0007E0
001F80
00BE00
07F800
029000
000000
000000
002000
00B800
00B800
00B800
00B800
00B400
00B000
00B000
005000
ENDCHAR
STARTCHAR circumflex
ENCODING 710
SWIDTH 390 0
DWIDTH 14 0
BBX 13 10 1 24
BITMAP
00100000
00B80000
01FE0000
03CB4000
0742D000
0E00F400
1D007C00
38001F40
B0000B40
E0000100
ENDCHAR
STARTCHAR caron
ENCODING 711
SWIDTH 390 0
DWIDTH 14 0
BBX 12 7 2 22
BITMAP
900000
74001E
2C0078
0E01D0
078B40
01FD00
00A000
ENDCHAR
STARTCHAR breve
ENCODING 728
SWIDTH 390 0
DWIDTH 14 0
BBX 9 6 2 21
BITMAP
000080
B003C0
7C0BC0
1FBF00
07FC00
005000
ENDCHAR
STARTCHAR dotaccent
ENCODING 729
SWIDTH 128 0
DWIDTH 5 0
BBX 4 3 0 19
BITMAP
2D
7D
14
ENDCHAR
STARTCHAR ring
ENCODING 730
SWIDTH 266 0
DWIDTH 10 0
BBX 9 7 0 18
BITMAP
005000
0BFE00
3E5B80
7803C0
7803C0
3E5F80
0AA900
ENDCHAR
STARTCHAR ogonek
ENCODING 731
SWIDTH 366 0
DWIDTH 13 0
BBX 9 10 3 -9
BITMAP
014000
0B8000
2E0000
3C0000
780000
B40000
740140
7D6F80
2FFF40
06A400
ENDCHAR
STARTCHAR tilde
ENCODING 732
SWIDTH 458 0
DWIDTH 17 0
BBX 14 6 1 20
BITMAP
06A40000
2FFD01E0
7D2E03E0
B80F4BC0
7007FF40
0001F800
ENDCHAR
STARTCHAR hungarumlaut
ENCODING 733
SWIDTH 239 0
DWIDTH 9 0
BBX 9 6 0 16
BITMAP
038100
0F8B40
2F2F00
7CBD00
60F400
004000
ENDCHAR
STARTCHAR Wgrave
ENCODING 7808
SWIDTH 878 0
DWIDTH 32 0
BBX 31 36 0 -1
BITMAP
0000000500000000
0000000B00000000
0000000BC0000000
00000003E0000000
00000000F0000000
0000000050000000
0000000000000000
0000000000000000
0000000000000060
00000000000000B4
00000000000000F0
00000000000000E0
00000000800001E0
2C000002E00002D0
7D000003F40003C0
2E000003F8000380
1F000007BC000780
0B40000B7C000B40
0780000E3D000F00
03C0001D2E000E00
02D0002C1F001E00
02E000380F402D00
01F0007407802C00
00F400B003C03800
00B800E002D07800
00BC01D001E0B400
007D02D000B0B000
003D03C00078E000
002E0780002DE000
002F0B40001FD000
001F4F00000BD000
000F9E000007C000
000BEE0000024000
0003FD0000000000
0002F80000000000
0000500000000000
ENDCHAR
STARTCHAR wgrave
ENCODING 7809
SWIDTH 566 0
DWIDTH 20 0
BBX 18 27 1 0
BITMAP
0001000000
0007800000
0003D00000
0001F00000
0000B40000
0000200000
0000000000
0000000000
0001400040
A003D001D0
F003F001E0
B407F801E0
7C07BC01E0
2D079E01E0
1E0B8B41E0
0F0B43C1E0
0B4B42D1E0
078F40F1E0
03DF4079F0
02EF402DF0
01FF001FF0
00BF000BF0
007F0003F0
003F0001F0
002F0000B0
001E000000
000A000000
ENDCHAR
STARTCHAR Wacute
ENCODING 7810
SWIDTH 878 0
DWIDTH 32 0
BBX 31 34 0 -1
BITMAP
0000000280000000
0000000B80000000
0000002F40000000
0000007D00000000
0000002400000000
0000000000000000
0000000000000060
00000000000000B4
00000000000000F0
00000000000000E0
00000000800001E0
2C000002E00002D0
7D000003F40003C0
2E000003F8000380
1F000007BC000780
0B40000B7C000B40
0780000E3D000F00
03C0001D2E000E00
02D0002C1F001E00
02E000380F402D00
01F0007407802C00
00F400B003C03800
00B800E002D07800
00BC01D001E0B400
007D02D000B0B000
003D03C00078E000
002E0780002DE000
002F0B40001FD000
001F4F00000BD000
000F9E000007C000
000BEE0000024000
0003FD0000000000
0002F80000000000
0000500000000000
ENDCHAR
STARTCHAR wacute
ENCODING 7811
SWIDTH 566 0
DWIDTH 20 0
BBX 18 26 1 0
BITMAP
00000B0000
00002F0000
00007D0000
0000F40000
0000900000
0000000000
0000000000
0001400040
A003D001D0
F003F001E0
B407F801E0
7C07BC01E0
2D079E01E0
1E0B8B41E0
0F0B43C1E0
0B4B42D1E0
078F40F1E0
03DF4079F0
02EF402DF0
01FF001FF0
00BF000BF0
007F0003F0
003F0001F0
002F0000B0
001E000000
000A000000
ENDCHAR
STARTCHAR Wdieresis
ENCODING 7812
SWIDTH 878 0
DWIDTH 32 0
BBX 31 31 0 -1
BITMAP
000000281A000000
0000007C2E000000
0000001414000000
0000000000000060
00000000000000B4
00000000000000F0
00000000000000E0
00000000800001E0
2C000002E00002D0
7D000003F40003C0
2E000003F8000380
1F000007BC000780
0B40000B7C000B40
0780000E3D000F00
03C0001D2E000E00
02D0002C1F001E00
02E000380F402D00
01F0007407802C00
00F400B003C03800
00B800E002D07800
00BC01D001E0B400
007D02D000B0B000
003D03C00078E000
002E0780002DE000
002F0B40001FD000
001F4F00000BD000
000F9E000007C000
000BEE0000024000
0003FD0000000000
0002F80000000000
0000500000000000
ENDCHAR
STARTCHAR wdieresis
ENCODING 7813
SWIDTH 566 0
DWIDTH 20 0
BBX 18 27 1 0
BITMAP
000A068000
001F0B8000
0005010000
0000000000
0000000000
0000000000
0000000000
0000000000
0001400040
A003D001D0
F003F001E0
B407F801E0
7C07BC01E0
2D079E01E0
1E0B8B41E0
0F0B43C1E0
0B4B42D1E0
078F40F1E0
03DF4079F0
02EF402DF0
01FF001FF0
00BF000BF0
007F0003F0
003F0001F0
002F0000B0
001E000000
000A000000
ENDCHAR
STARTCHAR Ygrave
ENCODING 7922
SWIDTH 483 0
DWIDTH 17 0
BBX 17 36 0 0
BITMAP
0001000000
0007800000
0003D00000
0001F00000
0000B40000
0000200000
0000000000
0000000000
0000000240
0000000380
0000000740
0000000B00
0000000E00
6000001D00
7800002D00
2D00003C00
1F40007800
0BC000B400
02E000F000
00F801E000
007D02D000
001F43C000
0007D78000
0002FF4000
0000BF0000
00003E0000
00003D0000
00007C0000
0000780000
0000B40000
0000F00000
0001E00000
0002D00000
0003C00000
0007800000
0003400000
ENDCHAR
STARTCHAR ygrave
ENCODING 7923
SWIDTH 363 0
DWIDTH 13 0
BBX 12 41 1 -14
BITMAP
010000
038000
02E000
01F400
007800
001400
000000
000000
000008
00001D
40001D
F0001D
F8001D
7C002D
2E002D
1F402D
0B802D
03D02D
01F02D
00B83C
003D3C
001F7C
000BFC
0007FC
0002FC
0000FC
000078
000038
000078
000078
000078
000074
000074
0000B4
0000B4
0000B0
0000B0
0000F0
0000F0
0000E0
000050
ENDCHAR
STARTCHAR endash
ENCODING 8211
SWIDTH 399 0
DWIDTH 14 0
BBX 14 6 0 6
BITMAP
00000690
0000BFE0
001BFE40
16FF9000
7FE40000
14000000
ENDCHAR
STARTCHAR emdash
ENCODING 8212
SWIDTH 549 0
DWIDTH 20 0
BBX 18 5 0 6
BITMAP
0000006BE0
00016FFFE0
05BFFFA500
7FFA500000
1500000000
ENDCHAR
STARTCHAR quoteleft
ENCODING 8216
SWIDTH 155 0
DWIDTH 6 0
BBX 3 11 1 12
BITMAP
50
B4
B4
B8
B8
78
78
34
34
34
14
ENDCHAR
STARTCHAR quoteright
ENCODING 8217
SWIDTH 155 0
DWIDTH 6 0
BBX 3 11 1 12
BITMAP
50
B4
B4
B8
B8
78
78
34
34
34
14
ENDCHAR
STARTCHAR quotesinglbase
ENCODING 8218
SWIDTH 155 0
DWIDTH 6 0
BBX 3 11 1 -1
BITMAP
74
78
7C
7C
3C
3C
3C
28
28
18
04
ENDCHAR
STARTCHAR quotedblleft
ENCODING 8220
SWIDTH 212 0
DWIDTH 8 0
BBX 6 11 1 18
BITMAP
5000
E0C0
E0D0
B0D0
B0D0
B0D0
B0D0
70D0
70D0
7490
3000
ENDCHAR
STARTCHAR quotedblright
ENCODING 8221
SWIDTH 212 0
DWIDTH 8 0
BBX 6 11 1 18
BITMAP
5000
E0C0
E0D0
B0D0
B0D0
B0D0
B0D0
70D0
70D0
7490
3000
ENDCHAR
STARTCHAR quotedblbase
ENCODING 8222
SWIDTH 212 0
DWIDTH 8 0
BBX 6 10 1 0
BITMAP
E080
B0D0
B0D0
B0D0
B0D0
70D0
74D0
74D0
3490
3400
ENDCHAR
STARTCHAR dagger
ENCODING 8224
SWIDTH 268 0
DWIDTH 10 0
BBX 12 29 -2 -1
BITMAP
005000
00B400
00B400
00B400
00B000
00B000
00B000
00B000
00B06E
00FFFE
02FFE0
2FF900
7FF000
39F000
00F000
00F000
00F000
00F000
00B400
00B400
00B400
00B400
00B400
00B400
007400
007400
007800
007800
002400
ENDCHAR
STARTCHAR daggerdbl
ENCODING 8225
SWIDTH 326 0
DWIDTH 12 0
BBX 12 29 0 -1
BITMAP
005000
00F000
00F000
00F000
00F000
00F000
00E000
00E000
00E06D
00FFFD
06FFD0
2FF900
7FE000
39E019
01F6FE
02FFE5
2FF900
7EF000
10F000
00F000
00F000
00F000
00F000
00B000
00B000
00B400
00B400
00B400
006000
ENDCHAR
STARTCHAR bullet
ENCODING 8226
SWIDTH 189 0
DWIDTH 7 0
BBX 5 5 1 8
BITMAP
1F40
7F80
BF80
7F40
2900
ENDCHAR
STARTCHAR ellipsis
ENCODING 8230
SWIDTH 387 0
DWIDTH 14 0
BBX 12 3 1 0
BITMAP
100404
F87D2F
F4782E
ENDCHAR
STARTCHAR guilsinglleft
ENCODING 8249
SWIDTH 409 0
DWIDTH 15 0
BBX 14 19 1 4
BITMAP
00000090
000002D0
00001F80
00007E00
0002F800
000BE000
002F4000
01F80000
07D00000
2F400000
7D000000
3E400000
0BE00000
02FD0000
007F8000
0007F900
0000BF80
00001F40
00000100
ENDCHAR
STARTCHAR guilsinglright
ENCODING 8250
SWIDTH 450 0
DWIDTH 16 0
BBX 13 20 1 4
BITMAP
24000000
7E000000
2FE00000
06FD0000
006F9000
0007F800
00007F40
00000BC0
000003C0
00000780
00001F00
00007D00
0002F400
000BD000
007F4000
01FD0000
0BE00000
2F800000
7D000000
60000000
ENDCHAR
STARTCHAR fraction
ENCODING 8260
SWIDTH 306 0
DWIDTH 11 0
BBX 10 28 0 -3
BITMAP
0000B0
0000E0
0001D0
0002C0
000380
000740
000B00
000E00
001D00
002C00
003800
007400
007400
00B000
00E000
01D000
02C000
038000
074000
0B0000
0E0000
1D0000
2C0000
380000
340000
700000
B00000
A00000
ENDCHAR
STARTCHAR Euro
ENCODING 8364
SWIDTH 589 0
DWIDTH 21 0
BBX 21 28 0 -1
BITMAP
000000100000
000002FD0000
00000FAF0000
00002D074000
000078014000
0000F0000000
0001D0000000
0002C0000000
000380000000
000740000000
000B00000000
000E01400000
016FFF800000
2FFFE4000000
1ABC00000000
003C00000000
003806B80000
0079BFE00000
01BFA9000000
7FF800000000
797400000600
007400000F40
007800002E00
003C0001BC00
002E001BF400
000FEBFF8000
0002FFE40000
000015000000
ENDCHAR
STARTCHAR trademark
ENCODING 8482
SWIDTH 1278 0
DWIDTH 46 0
BBX 45 28 0 0
BITMAP
000000000001400000005000
000000000007E0000000F000
000001400007F8000001F000
000003D5ABFFFD000002F000
0005AFFFFFA7AE000003F000
2AFFFFE540028B400007B400
BFE902D0000287C0000A7400
140002D00002C2D0000D7400
000001D00002C1F0001D3400
000001E00001C0B4002C3400
000001E00001C03C00383800
000000E00001D02D00743800
000000F00001D00F00B02800
000000F00001D00B40E02800
000000B00001E007C1D02C00
000000B40001E002D2C02C00
000000B40001E001F3801C00
000000B40001F000BF401D00
000000780001F0007E001D00
000000780000F0002D001D00
0000007C0000F00004000E00
0000003C0000F40000000E00
0000003C0000F40000000F00
0000003D0000F40000000F00
0000002D0000F40000000B40
0000002D0000F80000000B80
0000001D0000F80000000B80
0000000D0000B40000000640
ENDCHAR
STARTCHAR minus
ENCODING 8722
SWIDTH 358 0
DWIDTH 13 0
BBX 11 3 1 9
BITMAP
0016A8
7FFFFC
6A9550
ENDCHAR
STARTCHAR commaaccent
ENCODING 63171
SWIDTH 450 0
DWIDTH 16 0
BBX 3 9 6 -12
BITMAP
20
B8
B8
B8
B8
B4
B0
B0
50
ENDCHAR
STARTCHAR fi
ENCODING 64257
SWIDTH 409 0
DWIDTH 15 0
BBX 12 33 1 -1
BITMAP
00BD00
01FF40
02FB80
03E2C0
03D0D0
07C054
07C02C
07C018
078000
0B8000
0B8000
0B8005
0B400E
0B401E
0B41FE
0B6FFE
0BFFAE
2F941E
BF401E
A7401E
07401E
07801E
07800E
07800E
03C00E
03C00E
03C00E
03D00E
03D00E
02D00E
02D00E
02C00E
000005
ENDCHAR
STARTCHAR fl
ENCODING 64258
SWIDTH 416 0
DWIDTH 15 0
BBX 13 32 1 0
BITMAP
00BD0000
01FF4000
02FB9800
03E2DD00
03D0DD00
07C04E00
07C00E00
07C00E00
07800A00
0B800B00
0B800B00
0B800B00
0B400B00
0B401B00
0B41FF00
0B6FFB40
0BFF9740
2F940740
BF400740
A7400740
07400740
07800740
07800740
07800740
03C00740
03C00780
03C00780
03D00780
03D00780
02D00780
02D00B80
02C00780
ENDCHAR
STARTCHAR .notdef
ENCODING -1
SWIDTH 450 0
DWIDTH 16 0
BBX 1 1 0 0
BITMAP
00
ENDCHAR
STARTCHAR .null
ENCODING -1
SWIDTH 0 0
DWIDTH 0 0
BBX 1 1 0 0
BITMAP
00
ENDCHAR
STARTCHAR nonmarkingreturn
ENCODING -1
SWIDTH 450 0
DWIDTH 16 0
BBX 1 1 0 0
BITMAP
00
ENDCHAR
ENDFONT
